<svg width="382" height="219" viewBox="0 0 382 219" fill="none" xmlns="http://www.w3.org/2000/svg">
<path d="M150.939 24.1828C151.268 24.1828 151.514 23.9773 151.555 23.6485C151.555 23.3197 151.35 23.0731 151.021 23.032C148.596 22.8265 146.336 23.6074 144.116 25.4569C143.87 25.6624 143.828 26.0323 144.034 26.2789C144.157 26.4022 144.322 26.4844 144.486 26.4844C144.65 26.4844 144.733 26.4433 144.856 26.3611C146.87 24.7171 148.802 24.0184 150.939 24.2239V24.1828Z" fill="#194F5E"/>
<path d="M146.623 40.2116C146.787 40.2116 146.952 40.2116 147.157 40.2116C149.13 40.2116 150.815 39.3074 152.213 37.4579C152.418 37.2113 152.336 36.8414 152.089 36.677C151.843 36.4715 151.473 36.5537 151.308 36.8003C150.034 38.5265 148.596 39.2252 146.746 39.1019C146.418 39.1019 146.171 39.3074 146.13 39.6362C146.13 39.965 146.335 40.2116 146.664 40.2527L146.623 40.2116Z" fill="#194F5E"/>
<path d="M147.116 27.5118C146.788 27.5118 146.541 27.7584 146.541 28.0872C146.541 28.416 146.788 28.6626 147.116 28.6626H149.418C149.747 28.6626 149.993 28.416 149.993 28.0872C149.993 27.7584 149.747 27.5118 149.418 27.5118H147.116Z" fill="#194F5E"/>
<path d="M143.664 0.0684153C146.623 -0.260383 149.131 0.602292 151.104 2.65728C151.145 2.69833 151.227 2.7802 151.309 2.82135C151.514 2.65696 151.678 2.49257 151.843 2.32818C153.117 0.930833 154.515 0.273525 155.994 0.273493C157.022 0.314588 158.008 0.479232 158.994 0.643611C159.405 0.725804 159.858 0.807586 160.269 0.848689C160.597 0.889789 160.803 1.17809 160.762 1.50689C160.72 1.8354 160.433 2.04098 160.104 2.00006C159.652 1.95896 159.2 1.8762 158.789 1.794C157.803 1.6296 156.898 1.46588 155.953 1.46588C154.802 1.42478 153.734 1.99966 152.665 3.15045C152.46 3.39692 152.213 3.56131 152.008 3.76666C151.926 3.84886 151.802 3.93153 151.72 4.01373C151.555 4.17799 151.227 4.21893 151.021 4.05474C150.939 3.97255 150.857 3.93178 150.774 3.89068C150.61 3.76738 150.446 3.68496 150.281 3.52056C148.514 1.71218 146.376 0.972123 143.746 1.25982C141.691 1.4654 140.952 2.37008 141.116 4.38384V4.62994C141.363 4.75324 141.527 5.00044 141.486 5.28814C141.445 5.57566 141.157 5.78137 140.828 5.74029C139.307 5.41148 134.088 4.79487 131.293 8.74029C130.553 9.72651 130.348 10.7539 130.636 11.8633C132.896 10.5483 135.403 10.4666 137.335 10.5899C137.664 10.631 137.869 10.8773 137.869 11.2061C137.828 11.5348 137.582 11.7402 137.253 11.7403C135.404 11.617 132.979 11.6997 130.924 13.0147C130.718 13.138 130.512 13.138 130.307 13.0147C129.444 12.5216 128.293 12.6032 127.389 13.3018C126.443 14.0004 125.992 15.1514 126.279 16.1788C126.649 17.5762 127.759 18.8508 129.279 19.7139C131.047 20.7003 133.102 21.0294 134.746 20.5362C137.294 19.7964 139.267 18.2756 141.034 16.7549C142.473 15.5219 144.446 14.0833 147.158 13.96C150.487 13.7958 152.912 15.275 154.433 18.3985C154.515 18.5628 154.597 18.7683 154.679 18.9327C155.46 20.5355 156.158 22.0565 157.515 23.1251C158.254 23.7005 158.912 24.0291 159.775 23.6592V23.3721C159.816 22.9202 159.857 22.4267 159.857 21.9747C159.94 20.2896 161.173 18.5222 162.57 18.1934C164.132 17.7824 165.53 18.4809 166.681 20.2071C168.037 22.2211 167.296 26.2078 166.146 27.8106C165.57 28.5913 164.872 29.002 164.091 29.002C163.844 29.002 163.598 28.9611 163.352 28.879C163.064 28.7557 162.899 28.4273 162.981 28.1397C163.105 27.8521 163.433 27.6875 163.721 27.7696C164.378 27.9751 164.912 27.5224 165.2 27.1114C166.145 25.7962 166.763 22.303 165.735 20.7823C164.543 19.015 163.515 19.0564 162.816 19.2208C161.912 19.4266 161.009 20.7419 160.968 21.9336C160.927 22.3855 160.885 22.8783 160.844 23.3301V23.9473C160.844 24.1116 160.721 24.3173 160.557 24.3995C158.913 25.3035 157.68 24.605 156.775 23.8653C155.255 22.5912 154.432 20.9058 153.651 19.2618C153.569 19.0975 153.487 18.8919 153.405 18.7276C152.09 16.0151 150.076 14.7821 147.199 14.9463C145.35 15.0696 143.664 15.8502 141.773 17.4942C139.924 19.0971 137.828 20.7006 135.074 21.4815H134.951C135.485 23.2898 136.225 25.4678 137.335 27.4405L140.623 27.0704C140.828 27.0294 141.034 27.112 141.157 27.3174C142.555 29.5368 142.842 31.8386 142.062 34.3868C141.774 35.2907 141.938 35.5781 141.979 35.6192C142.062 35.7014 142.308 35.8655 143.253 35.7012C143.582 35.6601 143.87 35.8658 143.911 36.1944C143.952 36.5231 143.747 36.8114 143.418 36.8526C143.13 36.9348 143.294 36.9346 142.637 36.9346C141.979 36.9346 141.486 36.7703 141.157 36.4004C140.582 35.7429 140.788 34.7563 140.993 34.0987C141.651 31.9615 141.444 30.0711 140.417 28.2628L137.91 28.5499C137.91 29.2897 138.28 29.8658 138.814 30.5645H140.007C140.335 30.5647 140.582 30.811 140.582 31.1397C140.582 31.4683 140.335 31.7147 140.007 31.7149H139.021C139.062 31.8792 139.103 32.0437 139.103 32.2081C139.226 32.9479 139.349 33.6881 139.514 34.3868C140.5 38.9486 143.664 42.0309 146.911 44.6612C148.144 45.6476 149.254 46.2641 150.569 46.0997C153.241 45.7297 155.501 44.7845 157.351 43.2227C159.447 41.4555 161.05 39.2775 162.118 36.7706V36.6055C162.118 36.2769 162.365 36.0304 162.693 36.0303C163.022 36.0303 163.268 36.2769 163.269 36.6055V36.6876C163.31 36.8109 163.31 37.0172 163.228 37.2227C162.077 39.935 160.351 42.2776 158.132 44.168C157.474 44.7434 156.734 45.2365 155.953 45.6475L156.734 46.5108C157.597 46.6752 158.255 46.9631 158.83 47.3741C160.803 48.7715 161.913 50.9085 162.077 53.6622C162.159 54.854 162.611 55.7997 163.31 56.334C163.967 56.8272 164.79 56.9507 165.735 56.7452C166.722 56.5397 167.708 56.1689 168.612 55.7169C173.791 53.0864 176.873 48.5245 178.064 41.7022C178.229 40.7569 178.311 39.8116 178.353 38.8663C178.394 38.4965 178.435 38.1267 178.435 37.7569C177.037 37.4281 175.681 36.688 174.366 35.9893C173.914 35.7839 173.462 35.4966 173.01 35.2911C171.284 34.428 169.927 33.1538 169.022 31.4688C167.995 29.6195 168.119 27.6464 168.201 25.7559C168.242 25.4683 168.242 25.1393 168.242 24.8106C168.283 23.5777 168.447 22.3442 168.57 21.1524C168.735 19.6317 168.899 18.0286 168.899 16.5079C168.817 11.4116 166.763 7.58891 162.858 5.20513C161.214 4.17768 159.365 3.68466 157.269 3.68463C155.625 3.68463 154.556 4.30138 153.816 5.57525C153.652 5.82179 153.323 5.94551 153.035 5.78131C152.789 5.61695 152.665 5.28771 152.829 5.00006C153.774 3.35606 155.255 2.53424 157.31 2.53424C159.57 2.53426 161.666 3.10914 163.475 4.21881C167.749 6.80809 169.968 10.9595 170.092 16.4669C170.133 18.0697 169.927 19.6727 169.763 21.2344C169.598 22.3851 169.475 23.5769 169.434 24.7686C169.392 25.0974 169.393 25.4271 169.393 25.7559C169.269 27.5641 169.188 29.29 170.051 30.8516C170.832 32.3312 172.023 33.4408 173.544 34.2217C173.996 34.4683 174.489 34.7154 174.941 34.962C176.339 35.7428 177.818 36.5241 179.257 36.7295C181.805 37.0583 184.312 37.4282 186.778 38.209C192.861 40.0996 198.245 43.182 202.766 47.3741C207.821 52.0183 211.027 58.1008 213.164 67.1426C213.781 69.6497 214.192 72.1981 214.603 74.7051C214.685 75.2805 214.808 75.8563 214.891 76.4317C215.425 79.5963 215.794 82.1857 216.082 84.5284C216.164 85.1859 216.247 85.8436 216.329 86.46C216.493 87.5286 216.658 88.6385 216.74 89.7481C217.891 89.4604 219.042 89.1725 220.192 88.8848C222.905 88.1451 225.741 87.4466 228.535 86.8301C235.81 85.2684 242.509 84.2404 249.085 83.7061C249.907 83.6239 250.771 83.5832 251.593 83.501C257.141 83.049 262.936 82.555 268.607 82.4317C274.402 82.3084 280.321 82.4734 286.034 82.6377C287.432 82.6789 288.788 82.7608 290.186 82.7608C291.336 82.8019 292.487 83.0075 293.597 83.2129C294.09 83.2951 294.624 83.3778 295.117 83.46C296.761 82.8435 298.775 82.5555 300.748 82.6788C304.077 82.8432 306.872 84.4462 309.009 87.4053C310.899 89.9945 312.174 92.9534 313.078 96.7754C314.599 103.269 314.804 109.887 314.804 116.052C314.804 121.641 314.516 127.601 313.94 135.327C313.858 136.56 313.777 137.752 313.694 138.985C313.448 142.232 313.201 145.603 312.831 148.932C312.173 154.809 311.351 160.768 310.447 166.646C309.461 172.811 308.351 179.099 307.282 185.141L306.831 187.607C305.845 193.031 304.734 197.347 303.296 201.169C302.145 204.169 300.583 206.43 298.528 208.033C298.076 208.362 297.583 208.732 297.131 209.061H297.254C301.734 209.389 306.379 209.39 310.817 209.39H336.669C338.888 209.39 378.009 209.466 380.273 209.466H381.384C381.712 209.466 382 209.671 382 210C382 210.329 381.795 210.616 381.466 210.616C381.343 210.657 381.178 210.657 381.055 210.657C380.726 210.739 380.397 210.74 380.068 210.74C377.849 210.74 338.728 210.663 336.464 210.663H310.611C306.132 210.663 301.488 210.664 296.967 210.335C295.405 210.212 293.843 210.417 292.322 210.663C291.213 210.828 290.103 210.992 288.952 211.033C287.678 211.074 286.363 211.198 285.089 211.321C283.979 211.445 282.787 211.567 281.637 211.608L279.458 211.732C274.567 211.979 269.512 212.266 264.539 212.349H261.045C258.949 212.349 256.812 212.308 254.716 212.308C252.866 212.267 250.975 212.267 249.126 212.267C246.085 212.267 243.414 211.116 241.194 208.856C240.866 208.897 240.537 208.897 240.249 208.897C239.468 208.938 238.728 208.979 238.029 208.979H163.352V209.061C163.393 209.389 163.475 209.718 163.475 210.047C163.557 210.951 163.68 211.938 163.845 212.842C164.173 214.609 163.556 215.678 161.871 216.253C159.529 217.075 157.103 217.281 154.72 217.486C154.391 217.486 154.021 217.568 153.692 217.568C150.199 217.897 147.035 218.143 143.788 218.267H141.362C139.76 218.267 138.115 218.226 136.513 218.185C135.855 218.144 135.157 218.144 134.499 218.144C133.924 218.103 133.348 218.062 132.772 218.021C131.992 217.938 131.293 217.939 130.554 217.939C129.526 217.98 128.293 217.815 127.389 216.705C125.786 216.952 123.813 217.075 122.416 217.075C121.019 217.075 119.539 216.993 118.06 216.828C117.936 216.787 117.772 216.787 117.607 216.787C116.703 216.664 115.799 216.582 114.936 216.294C114.114 216.047 113.58 215.596 113.374 215.021C113.169 214.404 113.292 213.664 113.826 212.76C114.319 211.897 115.1 211.115 115.922 210.622C119.045 208.773 122.252 207.006 125.334 205.279L126.649 204.54C129.937 202.691 133.513 200.717 137.13 198.785C137.212 198.744 137.294 198.662 137.417 198.662L136.02 194.429C134.787 194.552 133.512 194.635 132.197 194.635C131.951 194.635 131.745 194.47 131.663 194.265C131.54 193.977 131.416 193.648 131.293 193.319C131.005 192.58 130.677 191.798 130.431 191.018C129.568 188.469 128.745 185.921 127.882 183.373C127.142 181.113 126.402 178.852 125.621 176.592C125.58 176.509 125.292 175.77 125.046 175.112C124.717 174.291 124.389 173.387 124.307 173.222C123.649 171.413 122.992 169.563 122.375 167.796C121.553 165.453 120.73 163.07 119.867 160.728C119.045 158.549 118.223 156.33 117.442 154.192C116.62 151.973 115.758 149.631 114.936 147.37C114.607 146.466 114.319 145.52 114.072 144.616C114.031 144.411 113.949 144.205 113.908 144C113.004 145.027 112.264 146.342 111.524 148.191C110.127 151.767 109.387 155.549 109.305 159.782C109.181 165.166 109.715 170.468 110.866 175.523L111.154 176.88C111.894 180.25 112.716 183.784 113.497 187.195C113.62 187.689 113.867 189.332 113.867 189.538C113.908 189.744 113.826 189.949 113.661 190.072C113.332 190.278 113.003 190.525 112.716 190.731C112.058 191.224 111.4 191.676 110.825 192.21C107.003 195.662 103.304 198.334 99.5234 200.43C93.8517 203.553 88.4672 205.28 83.042 205.649C77.4936 206.06 72.0273 205.074 66.7666 202.732L65.8623 202.32C60.6838 200.019 55.2587 197.635 50.0391 195.128C43.7508 192.128 38.0785 189.949 32.6533 188.511C29.3243 187.648 25.7897 187.114 22.0908 187.031C16.5013 186.867 10.6652 187.73 4.33594 189.62C2.92501 190.042 1.49401 190.507 0 191.025V189.794C1.3735 189.324 2.69626 188.899 4.00684 188.511C10.4594 186.579 16.378 185.716 22.1318 185.88C25.8719 185.962 29.5301 186.497 32.9414 187.401C38.4488 188.881 44.2029 191.059 50.5322 194.101C55.7518 196.608 61.1359 198.991 66.3555 201.293L67.2598 201.704C72.3561 203.965 77.6581 204.91 83.001 204.54C88.2617 204.17 93.4819 202.485 98.9893 199.443C102.647 197.43 106.305 194.758 110.086 191.388C110.743 190.812 111.442 190.319 112.1 189.826C112.346 189.703 112.551 189.538 112.757 189.374C112.675 188.758 112.552 187.771 112.47 187.483C111.689 184.031 110.908 180.537 110.127 177.167L109.839 175.811C108.688 170.632 108.154 165.248 108.277 159.782C108.36 155.426 109.141 151.479 110.579 147.78C110.743 147.328 110.949 146.918 111.113 146.507C110.99 146.466 110.826 146.384 110.661 146.384C107.209 145.644 104.948 143.671 103.715 140.383C102.318 136.725 101.784 132.985 101.455 129.779C101.208 127.19 101.126 124.518 101.085 121.97V121.313C101.003 116.216 101.496 111.284 102.646 106.722C103.427 103.516 104.578 99.817 106.962 96.6524C109.757 92.9945 113.456 91.5976 117.771 92.6251C122.046 93.6525 126.156 95.4607 129.813 97.0635C130.471 97.3512 131.129 97.5982 131.786 97.8448H131.869C131.869 97.6394 131.827 97.4339 131.786 97.3106C130.676 94.7624 129.485 92.1312 128.375 89.6241C128.046 88.9255 127.758 88.1859 127.43 87.4874C127.019 87.6106 126.69 87.6104 126.32 87.6104C124.841 87.6104 123.567 87.0355 122.539 86.419C120.525 85.2682 118.922 83.7063 117.319 82.1856C116.703 81.6102 116.086 81.0344 115.47 80.459C115.018 80.0482 114.689 79.5965 114.319 79.1446C114.073 78.8158 113.867 78.5279 113.62 78.2813C112.182 76.7607 112.511 75.0343 112.799 73.5547C112.84 73.3494 112.922 73.1849 112.922 72.9795C112.634 72.5275 112.387 72.0334 112.305 71.4991C112.264 71.1705 112.182 70.8824 112.141 70.5538C111.771 68.4991 111.401 66.5267 110.127 64.8829C109.552 64.102 108.976 63.2799 108.441 62.4991C108.318 62.3347 108.196 62.1283 108.072 61.9639C107.456 61.0598 107.25 59.992 107.579 59.129C107.867 58.3892 108.442 57.8541 109.223 57.6075C112.017 56.7855 114.771 56.0462 117.442 55.4297C118.881 55.1009 120.073 55.5533 120.812 56.7452C121.141 57.3205 121.553 57.8545 121.923 58.3887C122.334 58.9229 122.703 59.4571 123.073 60.0323C123.895 61.3475 124.717 62.7044 125.539 64.0196C125.827 64.5128 126.115 64.9649 126.402 65.4581C132.65 67.2665 137.582 69.4444 141.938 72.3213C142.308 72.5679 142.678 72.815 143.048 73.0616C143.13 72.8561 143.171 72.6499 143.171 72.4444C143.582 67.0195 144.24 62.6632 145.268 58.7588C146.377 54.5256 148.555 51.1961 151.761 48.9356C152.624 48.3191 153.61 47.7852 154.515 47.292C154.802 47.1277 155.131 46.9633 155.419 46.7989L154.844 46.1817C153.57 46.7571 152.172 47.1276 150.692 47.3331C150.487 47.3741 150.282 47.3741 150.076 47.3741C148.556 47.3741 147.282 46.5517 146.172 45.6475C142.761 42.8938 139.472 39.6468 138.403 34.7559C138.239 34.0163 138.115 33.2768 137.992 32.4962C137.91 32.1263 137.869 31.7558 137.787 31.3448V31.1807C137.253 30.4821 136.801 29.6601 136.801 28.6739C136.719 28.5917 136.636 28.55 136.595 28.4678C135.28 26.2485 134.458 23.7823 133.883 21.8096C132.239 21.974 130.389 21.5634 128.786 20.6592C126.978 19.6318 125.704 18.0698 125.252 16.4258C124.841 14.9051 125.457 13.3019 126.772 12.3155C127.553 11.6992 128.539 11.4121 129.443 11.4942C129.279 10.3023 129.608 9.10975 130.389 8.00006C132.361 5.16417 135.897 3.84963 140.007 4.34283C139.842 1.79473 141.034 0.356185 143.664 0.0684153ZM150.897 202.978C150.486 203.306 149.993 203.676 149.418 203.964C144.198 206.676 138.444 209.43 131.293 212.554C129.32 213.417 128.293 214.157 128.416 215.76C128.909 216.541 129.567 216.787 130.8 216.787C131.581 216.787 132.362 216.828 133.143 216.91C133.677 216.951 134.253 216.993 134.787 216.993C135.445 217.034 136.143 217.034 136.801 217.034C139.143 217.075 141.609 217.157 143.993 217.075C147.199 216.993 150.323 216.705 153.816 216.376C154.145 216.335 154.515 216.294 154.844 216.294C157.145 216.089 159.529 215.883 161.748 215.103L161.871 215.062C163.022 214.651 163.31 214.116 163.063 212.924C162.858 211.979 162.735 210.992 162.652 210.047C162.611 209.718 162.529 209.389 162.529 209.061C162.406 207.951 162.282 206.841 162.159 205.732C162.118 205.403 162.036 205.115 162.036 204.786C161.707 204.827 161.379 204.868 161.05 204.868C160.105 204.909 159.118 204.991 158.173 204.991H157.392C154.885 204.909 152.706 204.663 150.897 202.978ZM148.884 199.484C145.473 200.471 142.061 200.594 138.814 199.814C138.321 199.69 138.033 199.731 137.91 199.773C134.293 201.704 130.718 203.677 127.43 205.526L126.114 206.266C123.032 207.992 119.826 209.759 116.744 211.567C116.087 211.978 115.429 212.595 115.018 213.294C114.689 213.828 114.565 214.281 114.688 214.568C114.771 214.815 115.059 215.02 115.552 215.185C116.291 215.431 117.155 215.514 117.977 215.596C118.1 215.637 118.264 215.637 118.429 215.637L118.47 215.678C121.511 216.007 124.471 215.966 127.266 215.596C127.225 213.089 129.402 212.102 130.841 211.485C137.951 208.362 143.664 205.649 148.884 202.937C149.295 202.731 149.623 202.485 149.952 202.238C149.829 201.992 149.706 201.745 149.624 201.498C149.377 200.841 149.13 200.183 148.884 199.484ZM286.034 83.7471C280.363 83.5827 274.485 83.4188 268.69 83.542C263.019 83.6653 257.264 84.1583 251.716 84.6104C250.894 84.6926 250.031 84.7333 249.209 84.8155C242.674 85.3498 236.016 86.3777 228.823 87.9395C226.028 88.5149 223.233 89.2545 220.521 89.9532C219.329 90.2819 218.096 90.6108 216.863 90.8985V92.0499C216.863 93.1182 217.028 94.1865 217.233 95.296C217.357 95.8713 217.438 96.4882 217.521 97.0635C217.644 98.2142 217.808 99.365 217.932 100.516C218.137 102.201 218.342 103.968 218.589 105.694C218.712 106.434 218.795 107.215 218.918 107.955C219.452 111.736 220.028 115.682 220.686 119.504C221.097 121.888 221.631 124.23 222.206 126.696C222.494 127.806 222.741 128.916 222.987 130.066C223.07 130.354 222.905 130.601 222.658 130.725C222.206 130.889 221.548 131.136 220.809 131.136V131.711C220.726 132.327 220.727 132.985 220.727 133.602C220.685 136.684 220.398 140.259 218.713 143.383C218.959 143.424 219.247 143.465 219.534 143.465C220.562 143.547 221.59 143.671 222.617 143.753C225.576 144 228.494 144.288 231.453 144.534L234.865 144.821C235.112 144.287 235.44 143.794 235.769 143.342C236.015 142.972 236.262 142.602 236.468 142.232C238.564 138.451 241.647 136.19 245.88 135.327C249.373 134.588 252.908 135.081 255.949 135.615C262.772 136.807 269.019 138.944 274.567 141.985C274.814 142.15 274.937 142.479 274.772 142.767C274.608 143.013 274.28 143.136 273.992 142.972C268.567 140.013 262.401 137.875 255.743 136.725C252.661 136.19 249.414 135.698 246.085 136.397C242.181 137.219 239.386 139.314 237.454 142.767C237.208 143.219 236.919 143.63 236.673 144C236.303 144.575 235.974 145.068 235.728 145.644C235.07 147.205 234.536 148.89 234.043 150.534L233.92 150.863C232.276 156.001 231.618 161.097 231.905 166.07C232.111 169.523 232.44 173.181 232.975 177.948C233.344 181.154 233.756 184.566 234.413 187.895C235.441 193.196 237.166 200.019 240.906 206.266C241.071 206.594 241.235 206.923 241.358 207.252C241.4 207.375 241.482 207.499 241.523 207.622H241.564C241.729 207.622 241.893 207.663 242.017 207.786C244.072 209.923 246.537 211.033 249.332 211.033C251.181 211.033 253.072 211.074 254.922 211.074C258.169 211.074 261.497 211.156 264.744 211.074C269.717 210.992 274.731 210.746 279.622 210.499L281.801 210.376C282.91 210.294 284.102 210.211 285.212 210.088C286.527 209.965 287.842 209.842 289.157 209.801C290.226 209.76 291.254 209.595 292.363 209.431L292.404 209.39C293.391 209.225 294.378 209.102 295.405 209.02C295.446 208.937 295.528 208.855 295.61 208.773C295.857 208.608 296.104 208.403 296.351 208.238C296.885 207.869 297.419 207.499 297.912 207.088C299.844 205.608 301.241 203.595 302.31 200.718C303.707 196.978 304.816 192.703 305.762 187.36L306.214 184.894C307.282 178.811 308.393 172.564 309.379 166.399C310.283 160.522 311.105 154.562 311.763 148.726C312.174 145.438 312.379 142.068 312.626 138.821C312.708 137.588 312.79 136.396 312.872 135.163C313.447 127.478 313.735 121.559 313.735 115.97C313.735 109.887 313.57 103.352 312.05 96.9815C311.187 93.3236 309.954 90.4875 308.187 88.0215C306.255 85.3503 303.789 83.9116 300.789 83.7471C298.981 83.6238 297.131 83.8709 295.651 84.4463C294.624 84.8574 293.72 85.72 292.815 86.5831C292.61 86.7885 292.405 86.9529 292.199 87.1583C286.774 92.2135 282.952 98.8309 280.239 108.078C279.417 110.873 278.677 113.874 277.855 117.901C277.527 119.381 277.362 121.025 277.362 122.956V125.34C277.321 128.669 277.239 132.08 277.896 135.368V135.492C278.266 137.342 278.636 139.273 279.335 140.999C279.951 142.479 281.185 143.671 283.075 144.616C286.199 146.178 289.158 146.671 292.117 146.096C292.405 146.055 292.733 146.219 292.774 146.548C292.815 146.836 292.651 147.164 292.322 147.205C289.117 147.822 285.911 147.288 282.541 145.603C280.445 144.534 279.006 143.136 278.267 141.41C277.486 139.561 277.115 137.588 276.745 135.656V135.533C276.088 132.122 276.17 128.669 276.211 125.299V122.915C276.211 120.942 276.375 119.216 276.704 117.654C277.567 113.627 278.307 110.586 279.129 107.75C281.883 98.3384 285.787 91.5155 291.418 86.337C291.582 86.1315 291.788 85.9663 291.993 85.7608C292.527 85.2265 293.062 84.7334 293.638 84.2813H293.432C292.322 84.0759 291.254 83.8702 290.186 83.8702C288.788 83.8291 287.432 83.7471 286.034 83.7471ZM217.809 144.328C216.946 145.479 215.63 146.383 214.479 147.164C211.767 148.973 208.602 149.507 205.561 149.795C203.752 149.959 201.903 150.041 200.095 150.123C198.78 150.164 197.423 150.247 196.066 150.329C195.327 150.37 194.587 150.452 193.848 150.452C191.71 150.576 189.491 150.658 187.395 151.233C185.011 151.85 182.915 153.001 181.024 154.727C180.408 155.302 179.791 155.837 179.093 156.494C178.764 156.782 178.434 157.111 178.064 157.44C177.982 157.85 177.901 158.303 177.818 158.796C177.572 160.152 177.284 161.673 176.996 163.193C176.873 163.851 176.79 164.55 176.667 165.207C176.462 166.399 176.297 167.591 176.01 168.783C175.969 169.03 175.887 169.276 175.846 169.564H176.174C176.708 169.605 177.284 169.646 177.818 169.646C179.421 169.728 181.065 169.851 182.627 169.934C186.12 170.139 189.778 170.345 193.312 170.345C200.71 170.304 208.191 170.057 215.466 169.811C216.945 169.728 218.425 169.687 219.904 169.646C221.425 169.604 223.028 169.441 224.549 169.276C225.288 169.194 225.987 169.153 226.727 169.07C227.055 169.07 227.344 169.276 227.344 169.605C227.344 169.933 227.138 170.222 226.81 170.222C226.111 170.263 225.371 170.345 224.672 170.427C223.151 170.591 221.548 170.756 219.945 170.797C218.466 170.879 216.986 170.92 215.507 170.961C208.232 171.208 200.71 171.454 193.312 171.495C193.455 171.495 196.007 171.495 192.778 171.495C189.367 171.495 185.915 171.29 182.586 171.084C180.983 171.002 179.38 170.92 177.777 170.838C177.243 170.797 176.667 170.756 176.133 170.715H175.599C174.407 175.77 173.174 180.784 171.982 185.552L171.694 186.661C170.831 190.155 169.927 193.73 168.612 197.183C168.242 198.21 167.584 198.786 166.598 198.95C165.899 199.074 165.201 199.196 164.502 199.237L163.146 204.334C163.105 204.416 163.064 204.457 163.063 204.498C163.105 204.868 163.145 205.239 163.187 205.608C163.269 206.307 163.351 207.006 163.434 207.704H238.235L238.07 207.581C238.728 207.581 239.386 207.54 240.126 207.499C240.003 207.211 239.92 206.923 239.756 206.677C235.934 200.306 234.166 193.32 233.098 187.977C232.399 184.607 231.988 181.154 231.618 177.948C231.084 173.14 230.754 169.441 230.549 165.988C230.261 160.892 230.961 155.631 232.604 150.37L232.728 150.041C233.18 148.603 233.632 147.164 234.166 145.767L231.125 145.521C228.166 145.274 225.247 144.986 222.288 144.739C221.261 144.657 220.192 144.533 219.206 144.451C218.713 144.41 218.261 144.369 217.809 144.328ZM153.117 197.758C153.035 198.004 152.994 198.17 152.994 198.375C152.83 199.649 152.542 200.964 151.638 202.114C153.158 203.553 155.09 203.718 157.392 203.841C158.542 203.882 159.693 203.8 160.926 203.718C161.337 203.677 161.748 203.636 162.159 203.636L163.31 199.32C163.437 199.32 164.541 199.32 162.734 199.32C160.721 199.32 158.543 199.032 156.282 198.498C155.46 198.293 154.638 198.128 153.816 197.923L153.117 197.758ZM149.219 195.993C149.469 197.786 150.081 199.497 150.692 201.046C150.733 201.128 150.815 201.252 150.815 201.334C151.473 200.471 151.76 199.443 151.884 198.21C151.925 197.922 151.967 197.634 152.049 197.306V197.183C151.885 197.059 151.679 196.978 151.474 196.896C150.736 196.568 149.997 196.24 149.219 195.993ZM146.829 191.84C143.788 193.032 140.664 193.854 137.458 194.265L138.896 198.662C138.979 198.703 139.02 198.703 139.103 198.703C142.185 199.443 145.309 199.361 148.556 198.416C148.268 197.471 148.103 196.525 148.021 195.498C146.952 194.882 146.583 193.895 146.829 192.415V191.84ZM198.121 121.683C193.6 120.491 188.915 120.12 183.736 120.49C179.298 120.819 174.612 121.683 169.434 123.162C166.516 123.984 163.886 124.847 161.42 125.792C157.598 127.272 155.09 129.984 153.939 133.93C153.076 136.971 152.871 140.136 152.665 143.219C152.624 143.959 152.542 144.74 152.501 145.48C152.419 146.301 152.336 147.123 152.254 147.986C152.213 148.356 152.172 148.767 152.131 149.178V149.343C152.172 149.63 152.213 150 152.213 150.37C152.048 153.699 151.925 157.316 151.72 160.851C151.596 162.947 151.473 165.454 151.227 167.961C150.98 170.879 149.912 178.277 149.665 179.017C149.624 179.099 149.583 179.182 149.501 179.264C149.46 180.044 149.418 180.784 149.377 181.523C149.213 184.729 149.008 188.058 148.145 191.141C148.103 191.264 148.021 191.388 147.897 191.47V191.717C147.897 192.046 147.939 192.333 147.897 192.662C147.692 193.977 148.062 194.511 149.418 194.922C150.281 195.168 151.103 195.538 151.884 195.908C152.213 196.073 152.542 196.237 152.871 196.36C152.994 196.402 153.117 196.525 153.158 196.648L153.98 196.854C154.802 197.059 155.624 197.224 156.446 197.43C160.022 198.293 163.269 198.416 166.311 197.882C166.927 197.759 167.255 197.47 167.502 196.813C168.817 193.443 169.681 189.867 170.544 186.415L170.831 185.305C172.146 179.962 173.544 174.29 174.9 168.577C175.188 167.427 175.393 166.235 175.558 165.084C175.64 164.427 175.763 163.728 175.887 163.07C176.133 161.509 176.462 159.987 176.709 158.631C176.791 158.097 176.914 157.604 176.996 157.11C176.996 157.028 177.037 156.946 177.119 156.864C177.037 156.823 176.955 156.74 176.955 156.658C176.914 156.575 176.462 155.343 176.298 154.645C175.065 149.137 172.681 144.986 168.94 141.944C168.694 141.739 168.653 141.37 168.858 141.123C169.064 140.877 169.434 140.835 169.681 141.04C173.626 144.246 176.133 148.603 177.448 154.357C177.53 154.726 177.736 155.261 177.859 155.672C177.9 155.22 177.982 154.768 178.023 154.315C178.188 152.959 178.352 151.52 178.476 150.123C178.845 145.356 177.859 141.328 175.476 137.835C175.311 137.588 175.393 137.218 175.64 137.054C175.886 136.889 176.256 136.971 176.421 137.218C178.969 140.917 179.997 145.192 179.627 150.206C179.545 151.644 179.339 153.083 179.175 154.481C179.134 154.686 179.093 154.85 179.093 155.056C179.504 154.686 179.914 154.315 180.284 153.986C182.339 152.137 184.558 150.905 187.147 150.206C189.367 149.59 191.669 149.507 193.848 149.384C194.587 149.343 195.327 149.302 196.066 149.261C197.423 149.179 198.779 149.096 200.136 149.055C201.944 148.973 203.752 148.89 205.561 148.726C208.438 148.438 211.479 147.945 213.945 146.301C215.219 145.397 216.699 144.37 217.438 143.096V143.219C219.165 140.26 219.493 136.725 219.493 133.684C219.493 133.026 219.575 132.368 219.575 131.752V131.053C216.534 130.108 213.74 128.628 211.027 127.231C210.164 126.778 209.26 126.327 208.355 125.875C204.821 124.108 201.615 122.587 198.121 121.683ZM162.406 116.011C161.625 116.093 160.885 116.217 160.104 116.34C158.008 116.628 155.87 116.956 153.774 117.243C153.117 117.325 152.418 117.408 151.761 117.449C150.816 117.531 149.911 117.614 149.007 117.778C147.61 118.066 146.254 118.395 144.897 118.724C143.541 119.052 142.143 119.381 140.787 119.669C135.896 120.614 130.882 122.094 125.457 124.107C123.155 124.971 120.567 126.122 118.553 128.3C116.909 130.026 115.963 132.245 115.717 134.834C115.593 136.437 115.511 138.123 115.511 139.726C115.47 140.342 115.47 140.917 115.47 141.533C115.47 142.109 115.305 142.561 115.059 142.972V143.055C115.182 143.507 115.305 143.917 115.429 144.328C115.675 145.191 115.922 146.137 116.251 147C117.073 149.302 117.936 151.603 118.758 153.822C119.58 155.96 120.402 158.179 121.183 160.357C122.046 162.7 122.908 165.125 123.73 167.427C124.347 169.194 125.006 171.043 125.663 172.852C125.745 173.016 126.074 173.921 126.402 174.701C126.772 175.728 126.977 176.139 126.978 176.222C127.717 178.482 128.499 180.743 129.238 183.003C130.101 185.551 130.923 188.099 131.786 190.648C132.033 191.428 132.321 192.169 132.608 192.908L132.731 192.744C132.773 192.95 132.855 193.114 132.938 193.319C137.993 193.237 142.678 192.251 147.24 190.36C148.021 187.484 148.226 184.442 148.391 181.236C148.432 180.497 148.473 179.715 148.514 178.976C148.308 178.071 147.692 173.632 147.034 168.741C146.87 167.345 146.665 166.236 146.665 165.988C146.46 164.714 146.294 163.44 146.13 162.207C145.924 160.686 145.678 159.042 145.432 157.481C145.267 156.576 144.979 155.631 144.732 154.727C144.609 154.316 144.487 153.863 144.363 153.452C144.36 153.399 143.786 150.982 143.253 149.055H143.13C143.089 149.014 142.965 148.973 142.678 148.809C137.664 146.096 134.005 144.698 131.827 144.657C131.499 144.657 131.252 144.411 131.252 144.082C131.252 143.753 131.499 143.507 131.827 143.507C134.129 143.589 137.829 144.945 142.843 147.616C142.843 147.493 142.76 147.411 142.76 147.329C141.362 143.466 139.143 140.301 136.061 137.958C135.65 137.67 135.197 137.464 134.704 137.259C134.458 137.177 134.211 137.054 133.965 136.931C133.718 136.766 133.595 136.437 133.718 136.149C133.882 135.903 134.211 135.78 134.499 135.903C134.704 136.027 134.91 136.108 135.156 136.232C135.691 136.478 136.226 136.725 136.719 137.095C139.966 139.561 142.35 142.931 143.788 147C144.363 148.644 145.431 153.082 145.473 153.288C145.596 153.699 145.719 154.111 145.843 154.522C146.089 155.426 146.377 156.412 146.541 157.398C146.788 158.96 147.035 160.604 147.24 162.166C147.405 163.44 147.569 164.714 147.774 165.947C147.816 166.236 147.939 167.263 148.145 168.741C148.391 170.714 148.802 173.715 149.131 175.976C149.501 173.469 150.035 169.81 150.199 167.796C150.446 165.33 150.569 162.823 150.692 160.728C150.898 157.152 151.062 153.576 151.186 150.247C151.186 150.001 151.104 149.712 151.104 149.466C151.062 149.343 151.062 149.26 151.062 149.178V149.055C151.104 148.603 151.144 148.191 151.186 147.78C151.268 146.917 151.35 146.095 151.433 145.273C151.515 144.534 151.556 143.752 151.597 143.013C151.802 139.848 152.008 136.601 152.912 133.478C154.186 129.203 156.94 126.203 161.091 124.601C163.516 123.696 166.105 122.833 168.981 122.011C168.406 121.682 167.79 121.394 167.174 121.065C165.078 119.997 163.064 118.641 162.406 116.011ZM117.566 93.6934C113.703 92.7481 110.455 93.9815 107.948 97.3106C105.688 100.311 104.62 103.886 103.839 106.969C102.729 111.449 102.195 116.257 102.318 121.272V121.929C102.359 124.477 102.4 127.107 102.688 129.655C103.016 132.779 103.551 136.478 104.866 140.013C105.976 142.972 107.908 144.657 110.99 145.315C111.237 145.356 111.483 145.438 111.688 145.48H111.771V145.439C112.305 144.452 112.88 143.629 113.538 142.931C114.072 142.355 114.278 141.985 114.278 141.451V139.643C114.319 137.999 114.36 136.314 114.524 134.67C114.812 131.834 115.84 129.409 117.648 127.478C119.827 125.135 122.58 123.901 124.964 122.997C130.43 120.983 135.527 119.504 140.459 118.518C141.815 118.23 143.171 117.901 144.486 117.572C145.103 117.408 145.719 117.285 146.336 117.12C144.692 115.846 140.993 112.969 139.39 111.037C136.842 107.955 135.116 104.379 133.472 100.927L133.308 100.557C133.102 100.146 132.855 99.7352 132.608 99.3243C132.569 99.2854 132.567 99.2463 132.567 99.2422H132.362C132.075 99.1601 131.787 99.0364 131.458 98.9131C130.759 98.6254 130.06 98.3786 129.402 98.0909C125.621 96.4059 121.717 94.6798 117.566 93.6934ZM179.586 38.044C179.545 38.3727 179.503 38.7016 179.503 39.0303C179.462 39.9755 179.38 40.9621 179.216 41.9483C177.983 49.1408 174.695 53.9914 169.188 56.7862C168.242 57.2383 167.132 57.649 166.063 57.8956C165.694 57.9777 165.817 58.0186 164.954 58.0186C164.091 58.0186 163.351 57.7725 162.693 57.2794C161.707 56.5396 161.091 55.2649 161.009 53.7442C160.844 51.3195 159.94 49.5113 158.214 48.2784C157.762 47.9496 157.186 47.7436 156.446 47.5792C156.035 47.8258 155.583 48.0318 155.172 48.2784C154.309 48.7715 153.364 49.2646 152.542 49.8399C149.583 51.9771 147.528 55.0594 146.5 59.0049C145.473 62.8272 144.856 67.1023 144.445 72.4864C144.404 72.8148 144.363 73.1023 144.281 73.3897L144.198 73.3077C144.157 73.431 144.116 73.5135 144.116 73.6368C146.5 75.2807 148.843 76.9655 151.104 78.6094C153.076 80.0479 155.132 81.5275 157.146 82.9249C157.392 83.0892 157.679 83.2956 157.926 83.46C157.967 83.1723 157.967 82.9663 157.926 82.7608C157.515 81.4867 157.062 80.1716 156.651 78.8975C156.199 77.5413 155.748 76.1025 155.296 74.7051C154.597 72.4036 153.939 70.0612 153.281 67.8008C152.994 66.7733 152.707 65.7863 152.419 64.7999C152.296 64.5123 152.501 64.184 152.788 64.1016C153.076 63.9783 153.405 64.184 153.487 64.4717C153.775 65.4991 154.063 66.4854 154.351 67.4717C155.008 69.7321 155.666 72.0747 156.364 74.335C156.816 75.6913 157.269 77.1301 157.721 78.4864C158.132 79.7604 158.583 81.0756 158.994 82.3907C159.159 82.8428 159.077 83.2541 159.077 83.6651V84.1583C161.913 86.0488 164.831 87.8568 167.708 89.6241C169.229 90.5693 170.831 91.5567 172.393 92.543C172.927 92.8718 173.503 93.1595 174.037 93.4883C174.654 93.8171 175.27 94.1868 175.846 94.5567C175.969 94.269 176.093 93.9401 176.216 93.6524C176.586 92.7071 176.996 91.7207 177.325 90.7754C178.065 88.6383 178.763 86.4595 179.462 84.3223C179.708 83.5004 179.997 82.7194 180.243 81.8975H180.12C179.874 81.8564 179.627 81.7746 179.339 81.7335C179.01 81.6923 178.846 81.3638 178.887 81.0762C179.092 79.9666 179.297 78.8977 179.503 77.8292C179.955 75.3633 180.407 73.0614 180.941 70.7188C181.599 67.9652 182.463 65.6635 183.613 63.5674C185.257 60.6083 187.476 57.8951 190.395 55.2647C191.792 54.0317 193.56 52.6755 195.861 52.3467C196.19 52.3058 196.477 52.5114 196.519 52.8399C196.56 53.1687 196.354 53.457 196.025 53.4981C194.012 53.7858 192.45 54.9773 191.176 56.128C188.34 58.6762 186.202 61.3067 184.641 64.1426C183.531 66.1564 182.709 68.3757 182.093 71.0059C181.517 73.3074 181.106 75.6094 180.654 78.0752C180.613 78.363 180.572 78.6099 180.531 78.8565C183.161 78.7743 185.874 79.0623 188.504 79.7198C193.559 80.9528 198.204 83.0489 202.313 85.9258C202.601 85.186 202.848 84.4459 203.054 83.7061C203.588 81.5278 204.081 79.1029 204.492 76.0616C204.903 73.2257 205.108 70.7186 205.19 68.417C205.232 67.143 205.068 65.8278 204.903 64.5538C204.821 64.1428 204.779 63.7314 204.738 63.3204C204.697 62.7452 204.574 62.17 204.451 61.5538C204.41 61.3072 204.327 61.0192 204.286 60.7315C204.204 60.4439 204.41 60.1156 204.738 60.0743C205.026 59.9921 205.355 60.1969 205.396 60.5254C205.438 60.8131 205.519 61.0601 205.561 61.3477C205.684 61.9642 205.807 62.6219 205.89 63.2383C205.931 63.6493 206.013 64.0607 206.054 64.4717C206.218 65.7868 206.383 67.1429 206.342 68.4991C206.26 70.8828 206.054 73.3898 205.643 76.2667C205.19 79.3491 204.738 81.8158 204.163 84.0352C203.834 85.3091 203.3 86.5418 202.807 87.6924C202.601 88.1856 202.396 88.6797 202.19 89.1729C202.108 89.4192 201.903 89.542 201.656 89.542H201.492C201.246 89.4598 201.04 89.3781 200.793 89.337C200.588 89.2548 200.341 89.2131 200.136 89.1309C199.971 89.5418 199.807 89.9944 199.643 90.4053C199.191 91.556 198.738 92.7478 198.245 93.8985C195.368 100.803 192.079 108.038 186.161 113.586C185.011 114.613 183.737 115.558 182.422 116.298C181.189 116.997 180.243 117.326 178.6 117.326C176.956 117.326 175.188 116.791 173.462 115.682C171.571 114.49 169.762 113.134 167.995 111.818C167.173 111.202 166.31 110.544 165.447 109.928C165.16 109.722 164.872 109.558 164.584 109.353V109.435C164.543 109.599 164.625 109.804 164.666 110.051C164.707 110.256 164.79 110.462 164.79 110.709C164.913 112.024 164.872 113.914 163.352 115.353C163.721 117.654 165.324 118.928 167.626 120.079C168.242 120.408 168.899 120.737 169.516 121.065C169.803 121.23 170.091 121.353 170.379 121.518C170.42 121.518 170.503 121.601 170.503 121.601C175.229 120.368 179.585 119.587 183.695 119.299C188.997 118.929 193.806 119.339 198.45 120.531C202.026 121.477 205.273 123.038 208.89 124.806C209.794 125.258 210.698 125.751 211.603 126.203C214.274 127.601 217.068 129.039 219.986 129.943C220.603 130.149 221.22 130.067 221.713 129.902C221.507 128.916 221.261 127.971 221.056 127.025C220.48 124.56 219.945 122.217 219.534 119.792C218.835 115.929 218.302 112.024 217.768 108.201C217.644 107.462 217.562 106.681 217.438 105.941C217.192 104.215 216.987 102.448 216.781 100.722C216.658 99.5711 216.534 98.4202 216.37 97.2696C216.288 96.7353 216.164 96.1594 216.082 95.584C215.877 94.4744 215.671 93.3236 215.671 92.1729C215.63 90.3234 215.383 88.4734 215.137 86.7061C215.055 86.0897 214.973 85.4319 214.891 84.7745C214.603 82.4318 214.233 79.8423 213.698 76.7188C213.616 76.1436 213.493 75.5684 213.411 74.9932C213 72.5272 212.589 69.9787 212.014 67.5127C209.959 58.7176 206.835 52.7992 201.985 48.3194C197.588 44.2505 192.368 41.2499 186.449 39.4004C184.23 38.7018 181.928 38.3728 179.586 38.044ZM132.156 85.2266C131.581 86.0895 130.718 86.3775 129.979 86.6241C129.691 86.7063 129.362 86.8299 129.115 86.9532C128.951 87.0353 128.786 87.0762 128.622 87.1583C128.91 87.8159 129.239 88.5153 129.526 89.1729V89.2549C130.636 91.803 131.828 94.3923 132.938 96.9815C133.102 97.3513 133.102 97.7622 133.102 98.0909C133.184 98.132 133.225 98.1737 133.266 98.2559C133.348 98.4613 133.471 98.6257 133.595 98.8311C133.841 99.2832 134.088 99.7355 134.335 100.188L134.499 100.557C136.143 103.927 137.828 107.462 140.253 110.421C141.774 112.27 145.472 115.148 147.075 116.381C147.486 116.71 147.651 116.833 147.733 116.915C148.062 116.833 148.35 116.75 148.638 116.709C149.007 116.627 149.377 116.586 149.747 116.545C149.788 116.463 149.871 116.38 150.076 116.134C153.2 112.23 155.09 109.229 155.707 107.339C156.118 106.106 156.528 104.832 156.98 103.64C157.145 103.147 157.309 102.694 157.474 102.201C156.611 101.133 155.789 100.105 154.926 99.0772C153.159 96.899 151.308 94.6794 149.459 92.46L149.377 92.7071C149.089 93.4056 148.843 94.1453 148.556 94.8438C148.473 95.0493 148.35 95.2146 148.268 95.379C148.227 95.42 148.186 95.461 148.186 95.502C148.268 95.5841 148.309 95.6661 148.391 95.7481C149.952 97.8442 151.556 99.9817 152.008 102.735C152.09 103.064 151.884 103.351 151.556 103.393H151.474C151.186 103.393 150.939 103.187 150.897 102.899C150.527 100.434 149.007 98.42 147.527 96.4473C147.363 96.2007 147.199 95.9536 147.034 95.7481C146.007 94.3509 144.691 93.1997 143.253 91.9669C142.513 91.3505 141.815 90.7337 141.116 90.0762C140.459 89.4598 139.883 88.8021 139.308 88.1446C139.061 87.857 138.773 87.5699 138.526 87.2823C138.485 87.2412 138.403 87.1584 138.403 87.0762C137.047 86.9118 135.732 86.5009 134.417 86.0489C134.088 85.9256 133.718 85.802 133.39 85.6788C132.979 85.5144 132.567 85.3499 132.156 85.2266ZM158.132 103.969C157.68 105.243 157.268 106.393 156.857 107.626C155.912 110.421 152.829 114.532 151.391 116.34H151.597C152.254 116.258 152.912 116.216 153.569 116.134C155.665 115.846 157.802 115.558 159.857 115.23C160.638 115.106 161.419 114.983 162.2 114.859C162.241 114.777 162.282 114.695 162.364 114.654H162.406C163.434 113.791 163.844 112.599 163.68 110.75C163.68 110.586 163.639 110.421 163.598 110.257C163.474 109.928 163.392 109.558 163.475 109.147C163.598 108.448 163.392 107.954 162.652 107.256C161.872 106.557 161.131 105.777 160.392 105.037C159.857 104.503 159.323 103.968 158.789 103.434C158.707 103.352 158.583 103.27 158.419 103.188C158.337 103.434 158.214 103.722 158.132 103.969ZM125.991 66.6905C126.525 67.2247 127.019 67.8417 127.471 68.417C127.594 68.6225 127.759 68.7869 127.923 68.9922H128.088C130.102 68.9924 131.705 70.1018 132.979 71.0059C133.02 71.0061 133.102 71.0889 133.102 71.0889C133.307 71.0478 133.471 71.006 133.677 71.0059C134.005 70.9648 134.294 71.1705 134.335 71.4991C134.376 71.8278 134.17 72.1571 133.842 72.1573C133.554 72.1984 133.307 72.2803 133.02 72.2803C132.362 72.3625 131.704 72.4863 131.047 72.5274H129.074C128.951 72.5274 128.827 72.4856 128.745 72.4034C128.622 72.4445 128.539 72.4444 128.416 72.4444C128.087 72.4855 127.799 72.5683 127.471 72.6094C126.813 72.6916 126.156 72.7733 125.498 72.8555C124.06 73.061 122.58 73.2261 121.142 73.4727C120.813 73.5138 120.484 73.7605 120.196 73.9249C120.155 73.9658 120.114 74.0067 120.073 74.0069C120.073 74.5409 120.279 74.582 120.648 74.6231C122.169 74.8286 123.69 75.0337 125.211 75.2803H125.621C126.566 75.4036 127.554 75.5273 128.54 75.5684C128.786 75.5683 129.074 75.4865 129.361 75.4044C129.526 75.3633 129.69 75.2804 129.854 75.2803C130.142 75.2392 130.43 75.4449 130.513 75.7325C130.554 76.0201 130.348 76.3084 130.061 76.3907C129.937 76.4318 129.814 76.5137 129.649 76.5137C129.362 76.5548 129.074 76.6778 128.745 76.6778C128.581 76.76 127.266 77.7469 126.238 77.7471H122.292C122.128 77.7882 121.922 77.8291 121.676 77.8702C122.21 78.6099 122.95 78.8979 123.73 79.1856C124.1 79.35 124.43 79.4734 124.759 79.6377H129.772C130.101 79.6377 130.348 79.8841 130.348 80.2129C130.348 80.5416 130.101 80.7881 129.772 80.7881H125.457C125.704 81.2402 126.197 81.5281 126.978 81.6514L131.047 81.9385C131.376 81.9797 131.581 82.227 131.581 82.5557C131.54 82.8432 131.293 83.0897 131.006 83.0899H130.965L127.8 82.8428C128.005 83.1305 128.416 83.46 129.32 83.46C130.923 83.5011 132.362 84.0352 133.759 84.5284C134.088 84.6517 134.458 84.7752 134.787 84.8985C136.554 85.5149 138.199 86.049 140.007 85.9669C140.87 85.9258 141.733 86.0487 142.555 86.1309C143.048 86.2131 143.541 86.296 144.034 86.296C145.966 86.4193 147.034 87.7341 148.021 88.8848C148.103 88.967 148.185 89.0907 148.268 89.1729C150.816 92.2142 153.405 95.3378 155.871 98.3379C156.775 99.4063 157.638 100.475 158.542 101.543C158.624 101.666 158.707 101.831 158.707 101.872C158.748 101.913 158.748 101.996 158.748 102.078C158.788 102.118 158.867 102.119 158.871 102.119C159.077 102.242 159.365 102.366 159.57 102.571L161.173 104.174C161.913 104.914 162.653 105.695 163.434 106.394C163.844 106.763 164.255 107.216 164.461 107.791C164.625 107.873 164.79 107.996 164.954 108.078C165.365 108.325 165.776 108.572 166.146 108.859C167.009 109.476 167.872 110.134 168.694 110.75C170.42 112.065 172.229 113.422 174.078 114.572C176.832 116.34 179.462 116.545 181.887 115.189C183.12 114.49 184.312 113.627 185.381 112.641C191.135 107.257 194.382 100.146 197.177 93.3643C197.629 92.2137 198.121 91.0628 198.573 89.9122C198.738 89.4601 198.944 88.9669 199.149 88.4737C196.93 86.8297 194.34 85.72 191.833 84.6514H191.792C188.874 83.4596 185.586 82.6786 181.723 82.2676H181.435C181.188 83.0895 180.901 83.9526 180.613 84.8155C179.915 86.9527 179.215 89.1724 178.476 91.3096C178.147 92.2959 177.736 93.2824 177.325 94.2276C177.161 94.5974 177.037 94.9672 176.873 95.337C177.202 95.5425 177.49 95.7896 177.777 96.0362C179.339 97.4335 180.284 98.8309 180.695 100.434C180.778 100.721 180.572 101.051 180.284 101.133C180.202 101.133 180.366 101.133 180.12 101.133C179.874 101.133 179.668 100.968 179.586 100.722C179.216 99.3244 178.393 98.1736 176.996 96.8995C175.969 95.9542 174.777 95.2964 173.544 94.5977C172.969 94.2689 172.393 93.9402 171.858 93.6114C170.297 92.6251 168.694 91.6386 167.174 90.6934C163.639 88.5562 160.022 86.2959 156.569 83.9122C154.555 82.5148 152.501 81.0342 150.528 79.5958L150.363 79.5547C147.445 77.4176 144.363 75.2395 141.28 73.1846C137.047 70.431 132.238 68.2938 126.114 66.4854L125.991 66.6905ZM140.007 87.1172C140.048 87.1994 140.13 87.2821 140.212 87.3643C140.746 87.9808 141.322 88.6386 141.938 89.2139C142.596 89.8714 143.295 90.4882 143.993 91.0635C145.226 92.132 146.5 93.2007 147.527 94.4747C147.568 94.4336 147.568 94.3506 147.568 94.3506L147.692 94.3917C147.939 93.6931 148.226 92.9945 148.473 92.296L148.761 91.5147V91.4327C148.35 90.9395 147.897 90.4053 147.486 89.9122C147.404 89.83 147.322 89.7062 147.24 89.6241C146.336 88.5555 145.473 87.5285 144.034 87.4463C143.5 87.4053 142.966 87.3234 142.473 87.2823C141.651 87.2001 140.911 87.1173 140.13 87.1172H140.007ZM188.299 80.8292C185.668 80.1716 182.997 79.8836 180.366 80.0069C180.325 80.2946 180.243 80.5415 180.202 80.8292C180.284 80.8701 180.366 80.8702 180.448 80.8702V80.8292C180.982 80.9524 181.394 81.0761 181.846 81.1172C185.832 81.5282 189.244 82.35 192.244 83.6241H192.285C194.998 84.7749 197.793 85.9669 200.218 87.8575C200.382 88.0218 200.711 88.1034 201.081 88.1856C201.163 88.2266 201.286 88.2685 201.368 88.2686C201.533 87.9398 201.656 87.5691 201.82 87.2403C201.861 87.1583 201.902 87.1173 201.902 87.0352C197.875 84.1584 193.272 82.0621 188.299 80.8292ZM119.21 59.087C118.84 58.5118 118.264 58.3474 117.524 58.5118C115.511 59.0049 113.456 59.581 111.483 60.1153C110.99 60.2385 110.456 60.4022 109.963 60.5254C109.675 60.6076 109.387 60.6903 109.1 60.8135C109.017 60.8135 108.935 60.8956 108.853 60.8956C108.935 61.0189 109.017 61.1834 109.1 61.3067C109.223 61.4711 109.346 61.6765 109.47 61.8409C109.963 62.5807 110.538 63.4029 111.113 64.1426C112.552 66.0332 112.963 68.2115 113.333 70.3487C113.374 70.6364 113.456 70.9653 113.497 71.253C113.538 71.3763 113.579 71.4998 113.62 71.6231C113.785 71.3765 113.949 71.0884 114.113 70.8419C115.346 68.7047 116.908 67.0611 118.758 65.8692C119.21 65.6226 119.868 65.2526 120.566 65.4581C121.059 65.5814 121.511 65.9922 121.84 66.6495C121.963 66.855 121.963 67.0612 121.84 67.2256C121.429 67.9241 120.936 68.5819 120.484 69.2393C119.128 71.1709 117.689 73.1845 117.36 75.6915C117.319 75.9791 117.073 76.1846 116.785 76.1846H116.703C116.374 76.1435 116.169 75.8562 116.21 75.5274C116.58 72.7326 118.059 70.5951 119.539 68.5401C119.95 67.9649 120.32 67.4307 120.689 66.8965C120.566 66.7321 120.443 66.5675 120.278 66.5264C120.073 66.4854 119.785 66.568 119.374 66.8145C117.689 67.9242 116.25 69.4033 115.1 71.417C114.894 71.7868 114.689 72.1157 114.442 72.4444C114.36 72.5677 114.236 72.7322 114.154 72.8555V72.9376C114.113 73.2252 114.072 73.5133 114.031 73.7598C113.744 75.1572 113.538 76.3904 114.565 77.5001C114.853 77.8289 115.1 78.1166 115.347 78.4454C115.675 78.8563 116.004 79.267 116.374 79.5958C117.032 80.1711 117.648 80.788 118.265 81.3633C119.785 82.8018 121.388 84.323 123.237 85.4327L123.32 85.5147C125.416 86.7064 127.019 86.8709 128.704 86.0079C129.033 85.8435 129.403 85.72 129.731 85.5967C130.266 85.4324 130.759 85.2682 131.088 84.9395C130.554 84.8162 130.019 84.7335 129.443 84.7335C128.005 84.7333 126.978 84.0346 126.649 82.8428C125.951 82.6784 124.718 82.2676 124.348 80.7881C124.101 80.6648 123.813 80.5413 123.484 80.418C122.416 80.0481 121.101 79.514 120.484 77.8702C120.402 77.7058 120.402 77.5414 120.484 77.377C120.567 77.2127 120.689 77.0891 120.854 77.0889C121.018 77.0479 121.182 76.966 121.347 76.9659C121.717 76.8426 122.046 76.7608 122.416 76.7608H126.402C126.526 76.7608 126.69 76.719 126.896 76.6368C126.485 76.5957 126.032 76.5139 125.621 76.4317H125.211C123.649 76.2262 122.128 76.021 120.607 75.8155C119.457 75.6511 118.923 74.9519 119.087 73.6778C119.087 73.4724 119.21 73.3079 119.374 73.2256C119.456 73.1846 119.58 73.1027 119.703 73.0206C120.073 72.774 120.525 72.4856 121.06 72.4034C122.498 72.1568 124.019 71.9516 125.457 71.7872C126.115 71.705 126.772 71.6233 127.43 71.5411C127.717 71.5411 127.964 71.4581 128.252 71.417L127.677 70.2667C127.595 70.2256 127.512 70.1846 127.471 70.1026C127.183 69.815 126.937 69.4859 126.69 69.1573C126.156 68.4997 125.662 67.842 125.046 67.2667C123.155 65.4994 121.84 63.3617 120.566 61.2657C120.114 60.567 119.662 59.7857 119.21 59.087ZM129.526 71.376H131.088C131.252 71.335 131.417 71.335 131.581 71.335C130.718 70.7596 129.895 70.349 128.95 70.1846H128.909L129.526 71.376ZM119.95 57.3204C119.457 56.5395 118.758 56.2925 117.771 56.5391C115.141 57.1556 112.387 57.8548 109.634 58.6768L109.593 58.5118C109.182 58.6351 108.853 58.923 108.729 59.334C108.688 59.4161 108.688 59.4981 108.688 59.5801C108.976 59.4569 109.305 59.3342 109.634 59.252C110.127 59.1287 110.661 58.9642 111.154 58.8409C113.127 58.3066 115.182 57.7315 117.237 57.2383C118.429 56.9507 119.498 57.3614 120.114 58.3067C120.607 59.0464 121.06 59.7858 121.512 60.5254C122.704 62.4571 123.772 64.2244 125.293 65.7862L125.375 65.6631C125.17 65.2933 124.922 64.8826 124.676 64.5127C123.895 63.2387 123.032 61.8826 122.21 60.5674C121.84 60.0331 121.47 59.5392 121.101 59.0049C120.731 58.4708 120.32 57.8956 119.95 57.3204Z" fill="#194F5E"/>
</svg>
