<svg width="382" height="233" viewBox="0 0 382 233" fill="none" xmlns="http://www.w3.org/2000/svg">
<path d="M381.5 214.52C381.5 214.52 262.752 215.302 260.841 213.259C258.973 211.216 260.493 211.13 262.535 206.175C261.97 204.262 261.492 199.134 261.188 193.266C260.667 182.792 260.711 170.101 261.84 169.536C262.014 168.493 260.797 168.014 257.93 166.45C255.02 164.929 261.362 164.755 263.23 163.19C265.098 161.669 265.619 144.936 265.446 130.245C265.272 115.555 265.619 112.991 264.924 109.253C264.229 105.515 259.798 106.688 255.194 106.167C250.589 105.645 259.972 101.038 261.492 97.6481C263.013 94.2146 257.757 98.1697 252.631 100.212C247.505 102.255 259.277 82.0884 258.929 79.2199C258.582 76.3079 250.415 81.6103 244.247 84.0008C238.121 86.3913 235.037 84.6962 233.821 84.0008C232.648 83.3054 228.695 93.7365 227.348 94.258C226.001 94.7796 211.97 86.9128 208.929 83.6531C207.279 81.8711 205.15 80.5238 203.369 79.698C201.848 79.0026 197.722 77.7856 201.457 80.3065C202.978 81.3496 205.193 82.7839 205.671 84.1312C206.54 86.5217 203.803 87.2171 204.151 89.4337C204.498 91.6503 206.019 94.3015 210.363 95.1273C214.75 95.9531 208.191 90.7375 209.537 90.7375C210.884 90.7375 225.393 101.951 229.477 102.212C233.56 102.473 240.12 89.9118 240.12 92.0849C240.12 94.258 229.737 85.2612 229.737 84.1747C229.737 83.0881 233.299 78.9591 233.56 75.4386C233.821 71.8747 238.773 59.3139 239.555 58.2274C240.38 57.1408 239.816 51.9253 240.902 52.2295C241.988 52.4903 235.993 56.0542 233.256 54.4026C230.519 52.7511 229.433 36.6263 231.084 33.8882C232.735 31.15 248.026 30.8893 252.109 37.4521C256.193 44.015 249.937 51.6645 246.636 51.0995C243.378 50.5344 241.423 47.2747 241.423 47.2747C241.423 47.2747 243.595 44.015 243.074 40.9726C242.509 37.9737 239.251 44.2323 239.251 44.2323C239.251 44.2323 238.686 39.8426 237.904 39.321C237.079 38.756 230.78 36.5829 228.608 34.9313C226.436 33.2797 231.605 26.7168 240.641 25.6302C249.677 24.5437 252.109 29.1942 252.109 29.1942L254.846 33.5839C257.583 37.9737 255.107 46.9705 252.935 50.7952C250.763 54.6199 253.195 58.7055 254.281 57.6189C255.367 56.5323 250.198 56.5323 245.81 57.0539C241.423 57.6189 237.339 61.9652 242.248 60.3136C247.157 58.662 258.104 59.227 260.537 60.8786C263.013 62.5302 263.013 63.8775 265.446 71.8312C267.922 79.7414 267.357 108.731 267.357 115.294C267.357 121.857 253.977 118.293 245.506 119.684C237.035 121.031 231.301 121.596 234.038 129.246C236.775 136.895 233.213 142.632 230.476 143.197C227.739 143.762 229.129 132.245 229.911 126.812C230.736 121.335 237.296 105.471 238.121 99.4736C238.947 93.4757 234.299 73.787 236.775 69.6581C239.251 65.5726 242.77 78.6983 245.81 80.3065C248.808 81.9581 243.074 67.1807 240.902 63.6167C238.73 60.0528 235.689 61.7044 232.995 65.5291C230.259 69.3538 232.735 83.827 233.256 86.3043C233.821 88.7817 246.896 86.3043 247.722 84.392C248.547 82.4796 248.287 88.4775 248.547 95.0404C248.808 101.603 236.514 124.552 236.818 125.377C237.079 126.203 233.821 160.104 231.909 163.929C229.998 167.754 236.297 126.768 234.646 124.291C232.995 121.813 248.287 124.291 256.497 122.944C264.707 121.596 267.704 119.119 267.704 119.119L268.53 124.856C269.355 130.593 264.707 151.629 264.142 162.582C263.578 173.534 265.228 207.392 264.968 212.346C264.707 217.258 256.236 216.171 253.76 218.344C251.284 220.518 254.846 223.56 255.107 224.342C255.367 225.168 261.927 225.69 264.142 224.081C266.314 222.43 264.707 215.041 264.707 215.041C264.707 215.041 256.801 216.693 254.585 215.606C252.413 214.52 251.849 162.321 251.849 158.192C251.849 154.063 256.236 132.201 255.932 134.157C255.671 136.069 249.373 156.584 248.547 163.407C247.722 170.231 251.805 215.085 251.545 216.432C251.284 217.779 248.547 217.779 246.332 218.605C244.16 219.431 235.689 226.82 232.691 230.34C229.694 233.904 249.068 230.905 252.109 228.993C255.107 227.08 251.849 222.43 251.284 219.952C250.719 217.475 246.636 221.039 243.899 220.778C241.857 220.561 234.907 190.094 232.257 175.186C228.13 152.15 238.99 185.269 235.558 184.965C230.867 184.53 220.789 182.488 220.789 182.488C218.399 181.792 165.011 197.7 161.926 197.482C158.842 197.265 160.884 163.103 160.536 160.93C160.189 158.757 161.231 172.491 161.926 174.056C162.622 175.62 209.755 157.888 212.882 157.062C215.967 156.236 211.84 139.546 210.797 137.156C209.755 134.765 156.757 157.366 153.325 153.932C149.893 150.499 149.546 129.376 149.198 127.594C148.851 125.769 153.325 118.467 155.063 120.031C156.8 121.553 155.41 125.29 150.936 123.987C146.462 122.683 150.936 113.642 152.674 114.164C154.411 114.686 161.97 118.988 163.36 119.38C164.75 119.771 191.596 111.513 197.418 111.513C203.282 111.513 200.849 115.989 200.849 118.38C200.849 120.77 175.393 123.595 169.876 124.03C164.359 124.465 169.876 129.55 171.614 130.376C173.351 131.245 172.309 135.417 169.225 135.852C166.14 136.33 167.487 127.42 168.529 126.681C169.572 125.942 200.545 122.031 203.977 119.597C207.409 117.163 202.934 114.121 201.892 108.992C200.849 103.863 167.139 108.383 167.139 108.383C167.139 108.383 199.155 102.69 199.85 100.821C200.545 98.952 199.503 86.9563 198.808 84.6962C198.113 82.4361 162.665 96.4312 159.928 96.3008C157.191 96.1704 151.674 92.8238 150.632 92.1718C149.589 91.5199 150.632 96.9962 150.632 99.3867C150.632 101.777 159.928 103.863 160.276 104.993C160.623 106.123 161.318 114.599 161.318 114.599C161.318 114.599 153.412 110.557 150.632 107.297C147.895 104.081 146.505 83.0012 146.505 83.0012C146.505 83.0012 156.844 88.1298 160.276 87.7386C163.708 87.3909 149.242 81.7407 147.2 80.4369C145.115 79.133 178.173 71.0054 179.216 71.3097C180.258 71.6139 197.113 76.9598 198.156 77.5683C199.199 78.2203 165.445 88.5644 163.056 90.2595C160.667 91.9545 164.446 117.163 164.446 117.163C164.446 117.163 199.546 108.253 201.284 106.341C203.021 104.428 201.631 77.8726 202.326 75.656C203.021 73.4393 209.537 70.2231 212.318 68.615C215.054 67.0069 193.378 60.2701 190.988 59.5747C188.599 58.8793 208.538 51.3168 209.233 49.4479C209.928 47.579 206.844 18.7631 206.149 15.8077C205.28 12.1568 145.984 23.8917 132.691 27.3253C129.389 28.1511 129.867 29.3246 130.084 32.8885C131.518 55.9238 148.286 197.7 152.413 201.437C156.887 205.523 218.486 189.268 222.961 185.4C227.435 181.575 210.232 10.1575 208.147 7.11509C206.062 4.07269 127.608 20.1974 125.871 23.8048C124.133 27.4122 143.421 203.567 148.59 206.827C153.76 210.086 222.917 191.919 226.045 189.398C229.129 186.877 214.707 12.8087 213.317 8.28859C211.927 3.76846 206.757 2.29072 202.63 1.07376C198.504 -0.1432 119.224 14.0257 117.834 19.4585C116.444 24.8914 135.471 189.529 137.165 195.526C138.903 201.524 143.377 211.825 151.674 213.563C159.19 215.172 14.1404 215.432 0.5 214.998" stroke="#194F5E" stroke-linecap="round" stroke-linejoin="round"/>
</svg>
