<svg width="383" height="219" viewBox="0 0 383 219" fill="none" xmlns="http://www.w3.org/2000/svg">
<path d="M1 214.006C17.817 215.412 84.9793 215.25 101.904 214.439C106.663 214.223 109.204 212.33 111.746 208.491C112.503 207.355 117.099 202.326 118.83 203.029C120.073 203.57 116.937 208.112 116.721 209.086C115.964 212.546 113.206 213.195 110.07 213.628C105.527 214.223 100.985 214.169 96.3889 213.898C94.7126 213.79 93.0904 213.682 91.4141 213.574C89.143 213.412 86.8718 213.249 84.6007 212.817C81.6807 212.222 78.7607 211.032 78.1659 207.788C78.0037 206.977 77.9496 205.949 78.3822 205.192C79.6259 202.975 83.7896 203.246 85.8985 202.921C91.3059 202.11 96.497 200.326 101.526 198.109C103.851 197.081 106.555 194.594 109.313 195.405C111.692 196.108 113.747 198.703 115.369 200.542C116.288 201.569 117.207 203.192 118.83 202.975C120.127 202.813 120.993 201.407 121.912 200.596C123.967 198.758 126.184 197.027 128.293 195.243C129.158 194.486 130.942 192.593 132.294 192.972C133.808 193.404 134.511 196.054 134.998 197.298C136.62 201.083 138.134 205.138 140.946 208.22C142.027 209.464 143.812 210.708 145.596 210.329C147.759 209.843 145.759 205.949 145.218 204.922C143.163 200.812 140.459 196.811 137.701 193.134C137.431 192.755 134.673 188.7 134.511 190.646C134.241 193.242 136.025 196.216 137.215 198.379C138.35 200.38 139.81 202.218 140.892 204.219C142.406 207.085 143.271 210.113 145.542 212.546C151.653 219.089 162.089 219.576 169.173 214.277C173.282 211.195 174.688 206.274 178.149 202.651C179.122 201.623 180.474 201.353 179.879 202.651C179.339 203.84 176.04 208.599 174.526 207.788C173.823 207.409 173.444 206.112 173.174 205.409C172.417 203.354 172.039 201.137 171.227 199.136C168.956 193.296 164.901 188.267 161.873 182.806C160.521 180.318 158.844 177.29 159.872 174.37C161.278 170.26 166.685 167.07 170.038 164.583C171.065 163.826 172.147 163.069 173.336 162.582C173.769 162.42 174.634 162.095 174.526 162.906C174.364 164.15 172.904 165.123 172.039 165.88C169.389 168.314 166.469 170.477 163.333 172.315C160.304 174.1 157.168 175.614 154.194 177.344C150.247 179.669 146.461 182.211 142.136 183.779C136.836 185.726 131.104 186.05 125.643 187.402C121.696 188.375 117.964 189.889 114.017 190.646C112.016 191.025 110.016 191.349 108.988 189.186C108.177 187.564 106.014 182.589 106.825 180.913C107.312 179.94 108.501 179.723 109.421 179.345C111.151 178.642 112.773 177.615 114.396 176.749C121.804 172.856 130.131 170.801 136.999 165.88C139.919 163.772 142.244 161.068 144.785 158.58C145.867 157.499 147.381 156.526 148.3 155.39C148.3 155.39 146.083 153.389 145.326 152.849C142.568 150.74 139.053 148.415 135.484 149.55C127.373 152.146 121.047 158.689 115.315 165.178C113.314 162.744 112.611 159.013 111.043 156.255C109.907 154.255 108.718 152.362 107.799 150.199C106.933 148.09 104.284 145.116 105.419 142.629C105.744 141.872 106.393 141.872 107.041 141.98C107.041 141.98 106.933 141.655 106.879 141.493M106.879 141.493C106.771 141.169 106.609 140.844 106.501 140.52C106.068 139.438 105.69 138.357 105.257 137.329C104.013 134.247 102.283 131.057 101.256 127.812C101.147 127.92 101.201 127.542 101.147 127.38C101.093 127.055 100.985 126.731 100.931 126.406C100.715 125.487 100.499 124.622 100.336 123.703C99.8496 121.54 99.2007 119.323 99.4711 117.052C99.5252 116.457 99.6333 115.267 100.282 114.997C101.201 114.672 101.959 116.132 102.229 116.781C103.202 119.215 104.933 122.135 105.744 124.622C105.636 121.756 103.364 118.566 102.716 115.862C102.499 114.943 102.229 114.077 102.067 113.158C102.067 112.888 101.796 112.293 102.067 112.023C102.445 111.536 104.446 112.996 104.77 113.158C107.528 114.618 110.61 115.483 113.639 116.078C117.261 116.781 120.776 116.673 124.399 116.889C125.535 116.943 127.103 116.511 127.698 117.646C128.887 119.863 128.996 122.783 129.428 125.217C130.401 130.192 131.483 135.112 132.564 140.033C132.889 141.601 133.267 143.223 133.592 144.792C133.754 145.44 134.024 146.306 133.592 146.9C133.159 147.441 132.132 147.333 131.537 147.387C129.861 147.549 128.13 147.766 126.454 147.982C124.778 148.198 121.696 148.631 120.127 147.82C119.1 147.279 118.992 145.711 118.667 144.792C117.64 141.601 117.802 138.249 116.018 135.275C113.693 131.435 108.123 131.003 106.447 126.677C106.176 126.028 105.96 125.379 105.744 124.676C106.825 126.569 108.988 127.596 110.773 128.732C113.584 130.57 116.288 132.517 117.91 135.545C119.1 137.87 119.911 141.98 116.937 143.386C115.315 144.143 113.314 143.872 111.638 143.494C110.827 143.332 107.366 142.304 106.879 141.493ZM106.879 141.493C106.663 141.169 108.772 141.817 108.88 141.817C109.961 141.817 110.989 142.142 112.07 142.304C115.423 142.899 117.586 143.926 119.479 146.792C120.83 148.847 122.507 150.415 123.48 152.686C124.021 153.984 125.535 155.606 125.264 157.12C124.994 158.635 123.318 159.554 122.128 160.257C119.533 161.879 116.775 163.015 114.99 165.61C113.368 168.043 111.205 169.99 109.313 171.991C106.339 175.181 102.175 178.047 100.336 182.103C98.9304 185.185 102.121 187.348 104.23 189.078C104.933 189.673 107.15 190.809 105.906 191.728C104.338 192.917 102.175 193.08 100.336 193.729C94.1718 196 87.6289 197.081 81.3563 199.082C78.8689 199.893 74.1104 202.435 76.8141 205.733C78.6526 208.004 82.4918 206.923 84.9252 206.436C90.1704 205.409 95.4156 204.381 100.553 202.867C102.986 202.164 105.744 201.515 107.799 199.947C112.233 196.649 108.285 190.971 106.555 187.348C105.636 185.455 104.879 183.4 102.932 182.265C101.256 181.292 99.2007 181.346 97.3082 181.724C93.7393 182.481 90.657 184.374 87.737 186.429C86.223 187.51 84.6548 188.537 83.4111 189.889C82.8163 190.484 82.1674 191.241 82.0592 192.106C81.897 193.242 83.0326 193.188 83.8437 193.026C85.6822 192.647 87.4667 191.728 89.143 190.971C89.3593 190.863 90.9815 189.997 91.1437 190.268C91.1437 190.268 90.2244 190.592 90.1163 190.646C89.5755 190.809 89.0348 191.079 88.5481 191.349C87.1422 192.052 85.6822 192.701 84.3844 193.62C83.7896 194.053 83.0326 194.594 82.8163 195.297C82.6 195.946 84.06 195.729 84.3844 195.621C85.7363 195.405 86.98 194.756 88.2237 194.215C88.4941 194.107 89.2511 193.891 89.3593 193.62C89.4133 193.458 89.0348 193.729 88.8726 193.783C88.5481 193.945 88.2778 194.107 88.0074 194.269C87.1963 194.756 86.3852 195.243 85.7904 195.946C85.5741 196.216 85.3037 196.595 85.5741 196.919C85.9526 197.297 86.7096 197.352 87.1963 197.352C88.6022 197.352 90.0081 197.135 91.36 196.865C95.6859 196 99.8496 194.594 104.067 193.242C105.473 192.755 107.636 192.485 108.61 191.187C109.313 190.214 108.069 188.97 107.528 188.267C106.284 186.645 104.716 184.698 105.798 182.589C107.15 179.832 111.421 178.696 114.017 177.452C119.695 174.695 125.048 171.18 130.456 167.989C134.998 165.286 139.54 162.69 143.866 159.608C145.218 158.635 147.164 153.119 148.949 154.849C149.76 154.255 150.625 153.66 151.49 153.227C152.842 152.524 154.302 151.983 155.816 151.551C156.033 151.497 157.33 151.01 157.439 151.443C157.601 151.929 156.79 152.74 156.465 153.065C155.762 153.876 152.464 157.175 151.274 156.742C149.922 156.201 149.544 154.092 149.003 152.957C148.949 152.795 148.787 152.632 148.624 152.416C148.895 152.308 149.219 151.064 149.327 150.848C149.976 149.28 150.625 147.712 151.328 146.143C152.193 144.143 153.113 142.142 154.194 140.195C154.573 139.546 154.951 138.465 155.546 138.032C156.141 137.6 157.222 137.87 157.871 137.924C159.169 137.924 160.413 137.762 161.656 137.383C164.09 136.68 166.523 135.815 168.794 134.68C170.741 133.76 172.525 132.571 174.472 131.706C174.093 131.435 173.661 131.219 173.39 131.003C171.66 129.651 169.551 127.975 169.497 125.541C169.389 121.269 173.444 118.998 175.229 115.537C179.122 108.183 177.987 96.7738 171.876 90.8797C167.442 86.6079 159.98 84.6071 154.14 86.9864C151.544 88.0678 151.382 90.393 153.113 92.4478C153.545 92.9345 154.843 94.1241 155.438 93.2049C155.762 92.7182 155.492 92.0153 155.33 91.4745C154.735 89.7442 153.275 88.6086 151.382 88.8249C149.706 89.0412 148.192 89.8523 146.732 90.7175C143.055 92.8805 138.783 96.3412 138.242 100.883C138.188 101.424 138.188 102.019 138.242 102.56C138.837 106.183 143.92 105.696 146.57 106.507C148.408 107.048 150.084 107.967 151.49 109.265C152.68 110.346 153.653 111.806 155.167 112.563C157.168 113.537 158.736 109.481 160.142 111.86C161.548 114.294 161.061 116.997 160.467 119.593C160.304 120.404 160.413 121.107 161.332 121.215C162.035 121.323 162.738 121.215 163.441 121.053C164.847 120.837 168.578 124.406 169.605 123.649C172.904 121.161 171.822 112.239 172.309 108.237C172.471 107.048 172.471 105.858 172.417 104.669C172.309 103.317 172.039 101.965 171.552 100.721C169.173 94.7731 162.359 92.556 156.411 92.556C155.167 92.556 153.87 92.6642 152.626 92.8805C146.894 93.8538 138.891 96.8279 137.972 103.425C137.431 107.318 139.648 110.617 139.919 114.402C140.081 116.673 137.81 118.079 137.81 120.296C137.81 121.972 139.648 122.459 140.297 123.757C141 125.163 140.459 126.839 141.162 128.299C142.298 130.732 145.704 131.219 148.084 131.165C148.949 131.165 149.76 130.949 150.571 131.057C151.49 131.165 155.708 136.735 156.141 137.492C157.384 139.492 172.687 129.435 175.067 131.165C178.96 133.977 181.447 136.41 183.719 140.52C185.07 142.899 185.827 145.927 188.261 147.495C189.072 148.036 195.939 149.983 195.831 147.82C195.777 146.089 188.639 146.143 187.341 144.305C186.206 142.683 187.45 136.194 188.369 134.463C188.964 133.328 190.045 132.463 190.424 131.273C190.802 130.192 190.045 128.786 190.694 127.758C191.721 125.974 198.264 126.785 200.049 126.947C206.051 127.596 211.999 128.623 218.056 128.948C221.57 129.164 225.085 128.84 228.654 129.002C231.033 129.11 233.575 129.38 235.9 128.894C236.008 128.894 236.17 128.84 236.333 128.732C233.575 127.92 227.789 128.894 224.544 128.732C216.271 128.299 208.106 127.001 199.833 127.163C196.75 127.217 193.614 127.38 190.532 127.704C190.045 127.758 187.828 127.866 187.882 128.732C187.936 129.489 189.559 129.705 190.099 129.813C192.479 130.192 195.02 130.083 197.453 130.192C207.673 130.57 217.893 131.489 228.113 131.922C230.709 132.03 234.007 132.463 236.495 131.381C237.306 131.057 237.847 130.3 237.901 129.435C237.901 129.11 237.901 128.84 237.901 128.515C237.901 128.515 237.793 128.083 237.793 128.137C238.117 128.083 238.441 128.083 238.658 128.245C238.982 128.569 237.901 131.814 237.793 132.3C236.981 135.815 240.388 139.222 236.495 139.709C224.22 141.169 212.053 135.977 199.724 136.626C195.885 136.843 191.667 137.924 189.613 141.493C188.801 142.899 188.315 144.467 187.882 146.089C187.828 146.36 186.963 148.36 186.909 148.252C186.044 146.63 186.747 137.924 188.585 137.167C190.856 136.248 196.534 136.626 199.13 136.735C207.998 137.005 216.92 138.195 225.68 139.546C229.249 140.087 234.17 139.492 237.414 141.277C239.144 142.196 233.737 144.629 233.737 145.332C233.737 145.495 234.224 145.549 234.332 145.549C235.576 145.657 239.253 144.413 239.847 145.981C240.767 148.469 233.358 147.874 232.818 148.415C232.818 148.415 234.17 148.523 234.278 148.469C234.873 148.469 237.252 147.874 237.684 148.469C238.225 149.172 236.062 155.228 236.062 156.688C236.062 157.012 235.954 159.013 236.333 159.121C236.603 159.175 236.495 158.635 236.549 158.364C236.873 157.012 237.522 155.606 236.17 154.687C233.629 153.011 229.79 152.957 226.816 152.578C217.353 151.443 207.781 151.443 198.373 150.361C193.614 149.82 186.098 146.684 185.773 154.471C185.611 158.472 193.344 157.823 196.102 158.04C207.89 159.013 219.678 159.5 231.466 160.797C233.142 160.96 235.413 161.23 236.657 162.528C238.171 164.042 237.63 168.692 235.738 169.774C232.277 171.775 226.924 170.855 223.193 170.477C215.514 169.774 207.836 169.666 200.103 169.666C196.588 169.666 191.667 170.477 188.639 168.314C184.908 165.718 189.559 165.286 189.613 163.285C189.613 162.258 188.044 161.663 188.369 160.635C188.693 159.716 190.964 160.365 191.559 160.473C194.641 161.068 197.832 161.23 200.914 161.555C209.241 162.582 217.515 164.042 225.842 165.015C227.843 165.232 229.79 165.286 231.79 165.394C232.115 165.394 233.953 165.232 234.224 165.502C234.873 166.259 234.116 167.935 234.007 168.8C233.845 170.585 234.278 178.75 233.304 179.723C231.79 181.237 225.247 180.21 223.409 180.102C214.865 179.453 206.267 179.075 197.724 178.263C195.939 178.101 188.099 178.155 187.558 176.046C186.584 172.153 191.235 173.559 191.613 172.478C191.992 171.342 187.612 169.612 188.099 168.855C188.531 168.152 193.506 169.449 194.317 169.612C196.913 170.098 199.562 169.882 202.158 170.206C206.808 170.747 211.35 171.666 216.001 172.099C221.192 172.586 226.545 172.586 231.79 172.532C233.034 172.532 236.603 171.666 236.819 173.613C237.09 176.046 236.279 178.534 236.657 181.075C236.765 181.94 237.144 183.292 236.441 184.049C235.684 184.806 233.953 184.157 233.142 184.049C230.114 183.563 227.032 183.346 224.004 183.076C216.704 182.373 209.512 181.237 202.266 180.264C197.67 179.615 192.424 178.696 187.828 179.994C183.394 181.292 194.804 182.914 195.236 183.076C195.453 183.13 197.453 183.725 197.237 184.212C197.021 184.644 190.64 184.157 189.721 184.103C188.964 184.103 188.207 184.103 187.504 184.212C186.963 184.266 186.476 184.428 185.99 184.59C183.34 185.672 185.287 183.292 184.638 180.589C184.421 179.669 182.907 178.155 183.07 177.236C183.232 176.425 185.016 176.479 185.611 176.533C188.369 176.641 191.073 177.074 193.776 177.398C203.78 178.588 213.892 180.967 224.004 180.805C225.301 180.805 233.304 180.264 233.737 181.562C234.061 182.535 233.629 183.779 233.737 184.752C233.899 186.158 235.738 188.862 234.71 190.052C233.413 191.62 229.249 190.538 227.573 190.43C220.327 189.835 213.027 189.457 205.781 189.024C202.212 188.808 198.697 188.646 195.128 188.375C194.047 188.267 192.911 188.159 191.83 188.051C191.721 188.051 189.829 187.672 189.937 187.564C190.316 187.132 192.424 187.672 192.911 187.726C195.723 188.051 198.589 188.375 201.401 188.7C209.944 189.619 218.542 190.484 227.14 190.917C229.357 191.025 235.738 189.835 237.198 190.268C241.74 191.512 238.441 196.757 238.82 199.569C238.982 200.92 240.929 202.272 241.632 200.434C242.281 198.812 236.549 197.838 235.521 197.568C227.951 195.621 220.381 195.08 212.648 194.269C208.484 193.837 204.321 193.134 200.103 192.863C199.292 192.863 196.804 192.323 196.156 193.026C195.939 193.242 196.696 193.512 196.804 193.566C197.94 193.999 199.184 194.215 200.427 194.215C200.59 194.215 202.644 194.215 202.374 193.945C201.509 193.026 198.481 193.404 197.345 193.35C195.074 193.188 192.749 193.188 190.532 192.701C187.882 192.106 184.692 189.835 184.259 193.675C183.935 196.378 185.611 194.864 187.017 193.999C187.071 193.999 187.396 193.783 187.396 193.891C187.72 195.189 184.421 197.027 183.664 197.784C183.61 197.838 183.394 198.055 183.448 198.163C183.719 198.541 185.179 198.487 185.557 198.541C187.882 198.757 190.261 198.92 192.587 199.028C202.266 199.46 211.675 201.786 221.354 202.11C225.734 202.272 230.006 202.975 234.386 203.137C235.467 203.137 238.171 202.435 239.09 202.975C239.523 203.192 239.307 204.706 239.253 205.084C239.09 206.274 237.09 205.679 236.333 205.625C233.034 205.192 229.79 205.03 226.491 204.868C214.973 204.327 203.293 204.003 191.884 202.543C189.126 202.164 186.53 200.488 183.881 200.218C182.637 200.109 181.231 203.57 181.718 204.543C182.367 205.895 191.559 206.166 192.911 206.274C204.807 207.139 216.704 207.572 228.6 208.383C231.412 208.545 234.224 208.977 237.036 208.923C237.738 208.923 239.523 208.166 240.118 208.383C240.334 208.491 241.956 211.195 241.902 211.303C241.794 211.789 239.847 211.357 239.523 211.303C236.873 211.14 234.224 210.978 231.574 210.924C226.599 210.87 221.57 210.167 216.65 209.789C209.89 209.248 203.185 209.032 196.426 208.22C193.344 207.896 190.261 207.896 187.233 207.68C186.963 207.68 184.259 207.301 184.205 207.572C184.205 207.68 184.476 207.734 184.53 207.734C186.044 208.22 187.666 208.329 189.234 208.491C189.342 208.491 189.45 208.491 189.559 208.491C189.667 208.491 189.775 208.491 189.883 208.491C196.696 209.302 203.564 209.843 210.377 210.6C218.056 211.411 225.572 212.438 233.358 212.384C235.467 212.384 237.63 212.6 239.739 212.384C239.956 212.384 241.578 211.735 241.632 211.789C241.848 211.952 241.199 213.628 241.199 213.844C240.604 216.764 243.849 214.655 241.091 216.71C237.739 219.252 172.85 217.737 172.85 216.602C172.904 214.331 175.986 214.169 177.446 213.952C179.825 213.628 181.772 211.357 181.718 209.032C181.718 205.517 179.23 202.435 179.447 198.92C179.609 195.567 182.583 192.917 183.286 189.673C184.097 185.996 182.313 182.427 182.637 178.75C182.799 176.803 183.61 175.073 184.043 173.18C184.908 169.449 185.449 165.61 185.449 161.771C185.449 149.172 183.394 134.031 189.072 121.972L190.207 121.648C192.965 122.08 204.753 122.243 207.511 122.675C216.541 124.027 226.167 124.189 235.251 123.595C238.496 123.378 241.416 122.675 244.444 121.594C245.687 121.161 247.147 120.837 248.121 121.972C250.013 124.027 251.095 127.434 252.393 129.867C255.745 136.302 258.936 142.629 261.585 149.388C262.721 152.308 263.856 155.282 265.154 158.148C265.587 159.121 266.073 160.095 266.506 161.068C266.506 161.122 267.263 162.528 267.263 162.528C267.425 162.96 267.587 163.339 267.696 163.772C268.831 166.908 269.48 172.586 272.562 174.586C272.778 174.695 272.941 174.857 273.157 174.857C276.347 174.749 279.213 172.748 282.458 172.478C284.567 172.315 286.459 173.126 288.514 173.289C290.623 173.505 292.786 173.126 294.841 172.694C297.544 172.099 305.493 172.045 307.764 175.073C309.981 178.047 302.952 181.886 300.681 183.022C295.381 185.672 290.407 187.24 284.675 188.592C282.674 189.078 280.295 190.16 278.186 189.835C274.833 189.295 274.779 183.184 274.293 180.805C274.13 180.102 273.86 175.452 273.265 174.857C274.617 175.019 276.239 173.721 277.429 173.397C281.701 172.261 288.298 172.045 286.784 165.826C286.135 163.177 284.945 160.689 284.134 158.148C279.538 143.332 272.887 129.705 266.29 115.7C264.776 112.563 263.532 107.48 260.666 105.317C258.124 103.425 254.339 103.749 251.365 103.371C247.201 102.884 243.362 101.316 239.09 100.937C235.197 100.559 230.979 99.6938 227.086 100.559C225.085 100.992 223.355 102.289 221.57 103.317C218.001 105.372 214.487 107.535 211.134 109.914C207.619 112.455 203.996 116.132 199.508 116.619C197.832 116.781 195.453 116.619 194.209 115.267C193.127 114.023 192.641 112.131 192.154 110.563C191.235 107.643 190.424 104.669 189.829 101.64C188.153 92.7723 189.126 83.4175 189.775 74.4412C190.316 67.3575 190.478 60.0034 192.911 53.2982C194.641 48.4316 197.994 44.376 201.563 40.699C202.104 40.1582 202.969 39.8878 203.672 39.6716C205.835 38.9686 207.673 40.5908 209.241 41.8886C212.216 44.4841 215.19 47.9449 219.191 48.9723C221.408 49.5671 223.463 48.8641 224.869 47.0797C225.518 46.2686 225.626 45.079 226.329 44.3219C226.978 43.619 228.33 43.4567 229.141 43.5108C231.304 43.619 232.926 45.9442 235.143 45.5656C235.846 45.4575 236.549 45.2412 237.198 44.9708C240.875 43.2945 241.578 38.8605 243.579 35.7782C244.768 33.8856 248.553 29.7219 249.094 27.5049C249.419 26.153 248.824 25.1256 248.283 23.936C248.013 23.3412 247.526 22.3679 247.85 21.6649C248.013 21.2864 248.229 20.9079 248.445 20.5834C248.553 20.3671 248.878 19.8264 248.878 20.0427C248.878 20.3671 248.283 20.7997 248.013 20.9619C246.931 21.8812 245.633 22.5301 244.281 23.0167C242.984 23.5034 241.578 23.7197 240.334 24.3145C238.55 25.1256 236.657 26.6397 234.548 26.2612C232.764 25.9367 232.926 23.8819 232.007 22.6923C230.276 20.4212 226.113 20.7456 224.328 22.8004C222.976 24.3686 224.544 26.7479 224.004 28.5323C223.139 31.3982 219.191 32.3175 216.596 32.4256C215.298 32.4797 213.946 32.4256 213.135 31.236C211.35 28.6405 211.296 24.5308 211.404 21.5567C211.675 15.8249 214.433 7.87601 219.57 4.73971C226.491 0.467857 237.901 -0.829933 243.903 4.5234C245.741 6.1997 246.769 8.47081 248.175 10.4715C248.716 11.2286 249.31 11.9316 250.067 12.5264C251.744 13.7701 254.015 14.473 254.61 16.7441C254.718 17.2308 254.772 17.7175 254.772 18.2042C254.772 18.799 254.664 19.3397 254.501 19.8805C254.285 20.5834 253.853 21.2864 253.42 21.8812C252.825 22.6382 252.068 23.3412 251.257 23.8819C250.824 24.2064 250.338 24.4767 249.851 24.8012C249.527 25.0175 249.148 25.2338 248.77 25.396C248.553 25.5041 248.337 25.6123 248.121 25.6664C247.31 25.8827 246.715 25.5582 246.769 24.639C246.877 23.4493 247.688 22.1516 246.715 21.1782C245.579 20.0427 243.849 19.8264 242.389 19.3938C241.307 19.0693 240.388 18.5286 239.631 17.6634C238.55 16.5279 237.793 15.0138 237.522 13.4456C237.414 12.6345 237.522 11.8234 237.198 11.0664C235.684 7.60563 228.87 8.30859 225.518 10.2012C224.22 10.9582 223.138 12.0397 222.165 13.1753C220.273 15.3923 218.867 17.9338 218.056 20.7456C217.028 24.3686 216.866 27.9916 215.081 31.3982C213.513 34.3182 211.296 35.9945 208.701 37.6708C208.917 39.5634 211.188 40.9153 212.756 41.6723C214.324 42.4293 216.001 43.0242 217.569 43.8353C220.002 45.133 222.111 46.8634 224.058 48.756C226.599 51.2975 227.681 54.4338 228.546 57.8404C229.681 62.3286 230.168 66.8708 230.601 71.4671C230.871 74.333 231.628 77.1449 231.79 80.0108C231.79 80.2812 232.007 82.5523 231.574 82.5523C231.196 82.5523 231.412 81.5249 231.466 81.3627C231.682 80.3893 232.277 79.9027 232.872 79.1456C233.304 78.6049 233.629 77.956 233.953 77.3071C234.548 76.2797 235.089 75.1982 235.521 74.1167C236.008 72.9812 236.441 71.6834 237.468 70.9264C238.171 70.3856 239.09 70.2775 239.901 70.1153C241.524 69.6827 243.2 69.3582 244.876 69.0338C251.744 67.8982 258.719 67.8442 265.641 68.2768C269.047 68.4931 272.508 68.7093 275.861 69.5204C277.104 69.7908 278.618 70.0071 279.592 70.9264C280.078 71.413 278.781 71.9538 278.456 72.2242C277.753 72.873 277.375 73.7923 277.104 74.7116C276.293 77.5234 275.915 80.4975 276.401 83.4175C276.564 84.499 276.78 85.7427 277.591 86.5538C277.591 86.5538 277.483 86.6079 277.429 86.6619C274.022 88.6086 268.615 87.9597 264.776 88.5545C263.207 88.7708 261.585 89.0412 260.017 89.3116C259.476 89.3656 258.936 89.4197 258.395 89.4197C258.016 89.4197 257.205 89.7982 257.313 89.4197C257.476 88.8249 259.422 88.7708 259.909 88.6627C262.504 88.1219 265.046 87.7975 267.696 87.3649C270.291 86.9864 273.698 86.2834 276.077 87.7434C277.537 88.6627 278.132 90.393 278.564 91.9612C279.592 95.476 280.944 99.6938 280.241 103.425C279.754 105.966 277.05 105.047 275.32 104.398C269.264 102.127 262.775 101.046 256.34 100.667C247.58 100.18 238.82 100.937 230.06 100.397C227.464 100.235 222.436 100.559 220.921 97.9093C220.597 97.3145 220.435 96.6116 220.381 95.9627C220.11 92.0694 223.03 91.9071 226.059 92.6101C231.087 93.7456 236.062 96.7197 241.253 96.8279C244.227 96.8819 247.039 95.7464 249.743 94.6649C252.339 93.5834 256.773 90.5012 256.448 87.2027C256.286 85.2019 252.879 85.7427 251.581 85.7967C249.04 85.9049 246.444 85.4723 243.957 86.2293C243.308 86.4456 241.794 87.3108 241.199 86.716C240.821 86.3375 241.686 85.5264 241.902 85.3101C242.659 84.4449 243.633 83.7419 244.336 82.8227C244.552 82.5523 244.984 82.1197 244.876 81.7412C244.768 81.3086 243.849 81.579 243.579 81.6871C242.335 82.1197 241.145 82.8227 240.01 83.4175C238.766 84.0664 237.468 84.8234 236.116 85.0938C234.927 85.3101 233.791 84.9856 232.656 85.4182C230.655 86.1753 230.439 89.0412 229.627 90.7175C229.411 91.1501 228.924 92.5019 228.221 92.2316C227.356 91.9071 227.843 90.1767 228.005 89.5819C228.546 87.2567 230.33 84.0664 228.816 81.7412C227.573 79.9027 225.031 80.0108 223.084 79.5782C220.056 78.9293 217.136 77.3612 215.568 74.6034C211.459 67.4656 216.163 58.9219 212.81 51.676C211.134 47.999 207.024 49.0805 204.645 51.4056C199.13 56.813 198.264 65.3567 198.156 72.6567C198.048 79.2538 198.535 85.0938 204.807 88.6086C209.62 91.3123 215.244 92.1775 220.327 94.1782C222.922 95.2056 225.734 96.7738 226.383 99.6938C227.14 103.371 224.49 104.939 221.679 106.507C218.218 108.454 214.757 110.4 211.675 112.888C210.107 114.132 206.484 117.106 208.268 119.431C210.107 121.81 214.541 120.675 217.136 120.837C224.004 121.323 230.925 121.918 237.63 123.595C239.793 124.135 243.254 124.46 244.498 126.623C245.039 127.488 244.66 128.623 244.498 129.597C244.011 131.76 243.579 133.923 243.146 136.086C241.524 144.089 240.496 152.254 240.226 160.473C240.118 162.906 239.847 165.286 239.685 167.719C239.631 168.8 239.577 170.044 240.713 170.585C241.902 171.126 243.362 170.855 244.606 170.747C247.634 170.423 250.608 169.72 253.636 169.395C255.204 169.233 257.043 169.395 257.8 167.665C258.503 166.043 258.287 164.096 258.233 162.366C258.124 158.689 257.746 154.957 257.313 151.28C257.097 149.496 256.881 147.657 256.719 145.873C256.664 145.224 256.61 144.575 256.556 143.98C256.556 143.71 256.664 143.007 256.394 143.115C255.799 143.386 256.07 146.955 256.07 147.603C255.907 152.308 255.583 156.958 255.259 161.609C254.718 170.044 254.826 178.101 258.233 185.996C259.747 189.457 262.072 192.593 263.424 196.108C263.91 197.352 264.289 199.136 262.829 199.947C260.828 201.029 257.205 201.732 255.042 200.866C252.609 199.893 250.77 197.622 249.094 195.675C245.579 191.566 241.524 187.456 240.064 182.049C239.415 179.723 240.118 177.236 240.767 174.965C240.929 174.37 241.307 172.694 242.227 172.91C242.93 173.072 242.876 174.1 242.876 174.64C242.821 176.479 241.956 178.101 241.361 179.777C240.172 183.346 240.821 187.186 241.632 190.755C242.984 196.919 244.336 203.192 244.93 209.464C245.039 210.492 245.796 215.683 243.633 215.142L382.5 215.142" stroke="#194F5E" stroke-linecap="round" stroke-linejoin="round"/>
</svg>
