<svg width="52" height="52" viewBox="0 0 52 52" fill="none" xmlns="http://www.w3.org/2000/svg">
<path d="M47.125 44.6875H43.0625V7.3125H43.875C44.5215 7.3125 45.1415 7.05569 45.5986 6.59857C46.0557 6.14145 46.3125 5.52147 46.3125 4.875C46.3125 4.22853 46.0557 3.60855 45.5986 3.15143C45.1415 2.69431 44.5215 2.4375 43.875 2.4375H8.125C7.47853 2.4375 6.85855 2.69431 6.40143 3.15143C5.94431 3.60855 5.6875 4.22853 5.6875 4.875C5.6875 5.52147 5.94431 6.14145 6.40143 6.59857C6.85855 7.05569 7.47853 7.3125 8.125 7.3125H8.9375V44.6875H4.875C4.22853 44.6875 3.60855 44.9443 3.15143 45.4014C2.69431 45.8585 2.4375 46.4785 2.4375 47.125C2.4375 47.7715 2.69431 48.3915 3.15143 48.8486C3.60855 49.3057 4.22853 49.5625 4.875 49.5625H47.125C47.7715 49.5625 48.3915 49.3057 48.8486 48.8486C49.3057 48.3915 49.5625 47.7715 49.5625 47.125C49.5625 46.4785 49.3057 45.8585 48.8486 45.4014C48.3915 44.9443 47.7715 44.6875 47.125 44.6875ZM13.8125 7.3125H38.1875V44.6875H33.3125V37.375C33.3125 36.7285 33.0557 36.1085 32.5986 35.6514C32.1415 35.1943 31.5215 34.9375 30.875 34.9375H21.125C20.4785 34.9375 19.8585 35.1943 19.4014 35.6514C18.9443 36.1085 18.6875 36.7285 18.6875 37.375V44.6875H13.8125V7.3125ZM28.4375 44.6875H23.5625V39.8125H28.4375V44.6875ZM17.0625 13C17.0625 12.3535 17.3193 11.7335 17.7764 11.2764C18.2335 10.8193 18.8535 10.5625 19.5 10.5625H21.9375C22.584 10.5625 23.204 10.8193 23.6611 11.2764C24.1182 11.7335 24.375 12.3535 24.375 13C24.375 13.6465 24.1182 14.2665 23.6611 14.7236C23.204 15.1807 22.584 15.4375 21.9375 15.4375H19.5C18.8535 15.4375 18.2335 15.1807 17.7764 14.7236C17.3193 14.2665 17.0625 13.6465 17.0625 13ZM27.625 13C27.625 12.3535 27.8818 11.7335 28.3389 11.2764C28.796 10.8193 29.416 10.5625 30.0625 10.5625H32.5C33.1465 10.5625 33.7665 10.8193 34.2236 11.2764C34.6807 11.7335 34.9375 12.3535 34.9375 13C34.9375 13.6465 34.6807 14.2665 34.2236 14.7236C33.7665 15.1807 33.1465 15.4375 32.5 15.4375H30.0625C29.416 15.4375 28.796 15.1807 28.3389 14.7236C27.8818 14.2665 27.625 13.6465 27.625 13ZM17.0625 21.125C17.0625 20.4785 17.3193 19.8585 17.7764 19.4014C18.2335 18.9443 18.8535 18.6875 19.5 18.6875H21.9375C22.584 18.6875 23.204 18.9443 23.6611 19.4014C24.1182 19.8585 24.375 20.4785 24.375 21.125C24.375 21.7715 24.1182 22.3915 23.6611 22.8486C23.204 23.3057 22.584 23.5625 21.9375 23.5625H19.5C18.8535 23.5625 18.2335 23.3057 17.7764 22.8486C17.3193 22.3915 17.0625 21.7715 17.0625 21.125ZM27.625 21.125C27.625 20.4785 27.8818 19.8585 28.3389 19.4014C28.796 18.9443 29.416 18.6875 30.0625 18.6875H32.5C33.1465 18.6875 33.7665 18.9443 34.2236 19.4014C34.6807 19.8585 34.9375 20.4785 34.9375 21.125C34.9375 21.7715 34.6807 22.3915 34.2236 22.8486C33.7665 23.3057 33.1465 23.5625 32.5 23.5625H30.0625C29.416 23.5625 28.796 23.3057 28.3389 22.8486C27.8818 22.3915 27.625 21.7715 27.625 21.125ZM17.0625 29.25C17.0625 28.6035 17.3193 27.9835 17.7764 27.5264C18.2335 27.0693 18.8535 26.8125 19.5 26.8125H21.9375C22.584 26.8125 23.204 27.0693 23.6611 27.5264C24.1182 27.9835 24.375 28.6035 24.375 29.25C24.375 29.8965 24.1182 30.5165 23.6611 30.9736C23.204 31.4307 22.584 31.6875 21.9375 31.6875H19.5C18.8535 31.6875 18.2335 31.4307 17.7764 30.9736C17.3193 30.5165 17.0625 29.8965 17.0625 29.25ZM27.625 29.25C27.625 28.6035 27.8818 27.9835 28.3389 27.5264C28.796 27.0693 29.416 26.8125 30.0625 26.8125H32.5C33.1465 26.8125 33.7665 27.0693 34.2236 27.5264C34.6807 27.9835 34.9375 28.6035 34.9375 29.25C34.9375 29.8965 34.6807 30.5165 34.2236 30.9736C33.7665 31.4307 33.1465 31.6875 32.5 31.6875H30.0625C29.416 31.6875 28.796 31.4307 28.3389 30.9736C27.8818 30.5165 27.625 29.8965 27.625 29.25Z" fill="white"/>
</svg>
