<svg width="32" height="32" viewBox="0 0 32 32" fill="none" xmlns="http://www.w3.org/2000/svg">
<path d="M17.7812 16C17.7812 16.3523 17.6768 16.6967 17.4811 16.9896C17.2853 17.2826 17.0071 17.5109 16.6817 17.6457C16.3562 17.7805 15.998 17.8158 15.6525 17.747C15.307 17.6783 14.9896 17.5087 14.7405 17.2595C14.4914 17.0104 14.3217 16.693 14.253 16.3475C14.1842 16.002 14.2195 15.6438 14.3543 15.3184C14.4892 14.9929 14.7175 14.7147 15.0104 14.519C15.3033 14.3232 15.6477 14.2188 16 14.2188C16.4724 14.2188 16.9255 14.4064 17.2595 14.7405C17.5936 15.0745 17.7812 15.5276 17.7812 16ZM9.46875 14.2188C9.11645 14.2188 8.77207 14.3232 8.47914 14.519C8.18622 14.7147 7.95791 14.9929 7.82309 15.3184C7.68827 15.6438 7.653 16.002 7.72173 16.3475C7.79046 16.693 7.9601 17.0104 8.20922 17.2595C8.45833 17.5087 8.77572 17.6783 9.12124 17.747C9.46677 17.8158 9.82492 17.7805 10.1504 17.6457C10.4759 17.5109 10.7541 17.2826 10.9498 16.9896C11.1455 16.6967 11.25 16.3523 11.25 16C11.25 15.5276 11.0623 15.0745 10.7283 14.7405C10.3942 14.4064 9.94117 14.2188 9.46875 14.2188ZM22.5312 14.2188C22.179 14.2188 21.8346 14.3232 21.5416 14.519C21.2487 14.7147 21.0204 14.9929 20.8856 15.3184C20.7508 15.6438 20.7155 16.002 20.7842 16.3475C20.853 16.693 21.0226 17.0104 21.2717 17.2595C21.5208 17.5087 21.8382 17.6783 22.1837 17.747C22.5293 17.8158 22.8874 17.7805 23.2129 17.6457C23.5384 17.5109 23.8166 17.2826 24.0123 16.9896C24.208 16.6967 24.3125 16.3523 24.3125 16C24.3125 15.5276 24.1248 15.0745 23.7908 14.7405C23.4567 14.4064 23.0037 14.2188 22.5312 14.2188ZM31.4375 16C31.4381 18.6653 30.7486 21.2853 29.4362 23.605C28.1238 25.9247 26.2332 27.8651 23.9484 29.2374C21.6636 30.6097 19.0624 31.367 16.398 31.4358C13.7337 31.5045 11.0969 30.8822 8.74438 29.6295L3.69008 31.3143C3.27161 31.4539 2.82255 31.4741 2.39322 31.3728C1.96389 31.2715 1.57126 31.0526 1.25934 30.7407C0.947421 30.4288 0.728534 30.0361 0.627215 29.6068C0.525896 29.1775 0.546149 28.7284 0.685703 28.3099L2.37047 23.2556C1.26928 21.1853 0.65423 18.8913 0.571996 16.5477C0.489762 14.2042 0.942508 11.8727 1.89587 9.73021C2.84923 7.58776 4.27815 5.69065 6.07416 4.18289C7.87017 2.67513 9.98607 1.59635 12.2613 1.02842C14.5364 0.460499 16.9111 0.418362 19.205 0.905211C21.4989 1.39206 23.6518 2.3951 25.5001 3.83819C27.3485 5.28128 28.8438 7.1265 29.8726 9.23378C30.9014 11.3411 31.4365 13.655 31.4375 16ZM29.0625 16C29.0619 13.9963 28.6004 12.0196 27.7136 10.2227C26.8269 8.42593 25.5386 6.85721 23.9485 5.63794C22.3585 4.41867 20.5092 3.58154 18.5439 3.19132C16.5785 2.80111 14.5497 2.86825 12.6145 3.38757C10.6792 3.9069 8.88939 4.86447 7.38343 6.18621C5.87747 7.50795 4.69577 9.15842 3.92975 11.0099C3.16372 12.8615 2.83392 14.8644 2.96584 16.8638C3.09777 18.8631 3.68789 20.8054 4.69055 22.5402C4.7747 22.6858 4.82695 22.8477 4.84384 23.015C4.86073 23.1824 4.84187 23.3514 4.78852 23.511L2.9375 29.0625L8.48906 27.2115C8.60998 27.1703 8.73686 27.1492 8.86461 27.1492C9.07317 27.1495 9.27795 27.2048 9.45836 27.3095C11.4442 28.4584 13.6975 29.0641 15.9917 29.0655C18.286 29.067 20.5401 28.4641 22.5274 27.3177C24.5146 26.1713 26.1649 24.5217 27.3121 22.5349C28.4593 20.5481 29.063 18.2942 29.0625 16Z" fill="white"/>
</svg>
