<svg width="40" height="40" viewBox="0 0 40 40" fill="none" xmlns="http://www.w3.org/2000/svg">
<path d="M36.4045 7.42647C38.6517 9.85294 40 12.5 40 16.9118C40 24.6324 34.382 31.4706 26.5169 35L24.4944 32.1324C31.9101 28.1618 33.4832 23.0882 33.9326 19.7794C32.809 20.4412 31.236 20.6618 29.6629 20.4412C25.618 20 22.4719 16.9118 22.4719 12.7206C22.4719 10.7353 23.3708 8.75 24.7191 7.20588C26.2921 5.66176 28.0899 5 30.3371 5C32.809 5 35.0562 6.10294 36.4045 7.42647ZM13.9326 7.42647C16.1798 9.85294 17.5281 12.5 17.5281 16.9118C17.5281 24.6324 11.9101 31.4706 4.04494 35L2.02247 32.1324C9.4382 28.1618 11.0112 23.0882 11.4607 19.7794C10.3371 20.4412 8.76405 20.6618 7.19101 20.4412C3.14607 20 0 16.6912 0 12.7206C0 10.7353 0.898876 8.75 2.24719 7.20588C3.82023 5.66176 5.61798 5 7.86517 5C10.3371 5 12.5843 6.10294 13.9326 7.42647Z" fill="#00979F"/>
</svg>
