<svg width="32" height="32" viewBox="0 0 32 32" fill="none" xmlns="http://www.w3.org/2000/svg">
<path d="M26.9999 25.8962V18.1448C26.9999 14.3353 26.1319 11.4252 21.4279 11.4252C19.1599 11.4252 17.6479 12.5892 17.0319 13.7004H16.9759V11.7691H12.5239V25.8962H17.1719V18.8856C17.1719 17.0337 17.5359 15.2612 19.9439 15.2612C22.3239 15.2612 22.3519 17.3512 22.3519 18.9914V25.8697H26.9999V25.8962Z" fill="white"/>
<path d="M4.96436 11.7692H9.61235V25.8962H4.96436V11.7692Z" fill="white"/>
<path d="M7.2876 4.73218C5.80361 4.73218 4.59961 5.86975 4.59961 7.27187C4.59961 8.674 5.80361 9.83802 7.2876 9.83802C8.7716 9.83802 9.9756 8.674 9.9756 7.27187C9.9756 5.86975 8.7716 4.73218 7.2876 4.73218Z" fill="white"/>
</svg>
