<svg width="32" height="32" viewBox="0 0 32 32" fill="none" xmlns="http://www.w3.org/2000/svg">
<path d="M28.4437 9.97305C28.1326 8.81049 27.2206 7.89407 26.0641 7.58103C23.9512 7 15.4997 7 15.4997 7C15.4997 7 7.0485 7 4.93566 7.559C3.80138 7.87171 2.86715 8.81066 2.55602 9.97305C2 12.0964 2 16.5 2 16.5C2 16.5 2 20.9258 2.55602 23.027C2.86748 24.1893 3.77913 25.1058 4.93583 25.4188C7.07075 26 15.5 26 15.5 26C15.5 26 23.9512 26 26.0641 25.441C27.2208 25.1281 28.1326 24.2117 28.444 23.0493C28.9999 20.9258 28.9999 16.5224 28.9999 16.5224C28.9999 16.5224 29.0221 12.0964 28.4437 9.97305ZM12.8089 20.5682V12.4318L19.8368 16.5L12.8089 20.5682Z" fill="white"/>
</svg>
