<svg width="32" height="32" viewBox="0 0 32 32" fill="none" xmlns="http://www.w3.org/2000/svg">
<path d="M16.0033 3H15.9967C8.82888 3 3 8.8305 3 16C3 18.8438 3.9165 21.4795 5.47487 23.6196L3.85475 28.4491L8.85162 26.8518C10.9072 28.2135 13.3594 29 16.0033 29C23.1711 29 29 23.1679 29 16C29 8.83213 23.1711 3 16.0033 3Z" fill="white"/>
<path d="M23.5679 21.3568C23.2543 22.2424 22.0095 22.9769 21.0166 23.1914C20.3374 23.336 19.4501 23.4514 16.4634 22.2132C12.643 20.6304 10.1828 16.7483 9.99102 16.4964C9.80739 16.2445 8.44727 14.4408 8.44727 12.5753C8.44727 10.7098 9.39464 9.80141 9.77652 9.41141C10.0901 9.09128 10.6085 8.94503 11.1058 8.94503C11.2666 8.94503 11.4113 8.95316 11.5413 8.95966C11.9231 8.97591 12.1149 8.99866 12.3668 9.60153C12.6804 10.3572 13.4441 12.2227 13.5351 12.4144C13.6278 12.6062 13.7204 12.8662 13.5904 13.118C13.4685 13.378 13.3613 13.4934 13.1695 13.7144C12.9778 13.9354 12.7958 14.1044 12.604 14.3417C12.4285 14.548 12.2303 14.769 12.4513 15.1509C12.6723 15.5247 13.436 16.771 14.5605 17.772C16.0116 19.0639 17.1881 19.4767 17.609 19.6522C17.9226 19.7822 18.2964 19.7513 18.5255 19.5075C18.8164 19.1939 19.1755 18.6739 19.5411 18.162C19.8011 17.7948 20.1294 17.7493 20.4739 17.8793C20.8249 18.0012 22.6823 18.9193 23.0641 19.1094C23.446 19.3012 23.6979 19.3922 23.7905 19.553C23.8815 19.7139 23.8815 20.4695 23.5679 21.3568Z" fill="#00979F"/>
</svg>
