<svg width="32" height="32" viewBox="0 0 32 32" fill="none" xmlns="http://www.w3.org/2000/svg">
<path d="M21.8496 3.40998H9.54883C6.16641 3.40998 3.39844 6.16561 3.39844 9.53293V21.7794C3.39844 25.1459 6.16641 27.9024 9.54883 27.9024H21.8496C25.232 27.9024 28 25.1459 28 21.7794V9.53293C28 6.16561 25.232 3.40998 21.8496 3.40998ZM25.9498 21.7794C25.9498 24.0296 24.1111 25.8613 21.8496 25.8613H9.54883C7.28826 25.8613 5.44867 24.0296 5.44867 21.7794V9.53293C5.44867 7.28215 7.28826 5.45106 9.54883 5.45106H21.8496C24.1111 5.45106 25.9498 7.28215 25.9498 9.53293V21.7794Z" fill="white"/>
<path d="M22.3643 10.5527C23.2134 10.5527 23.9019 9.86751 23.9019 9.02231C23.9019 8.17711 23.2134 7.49195 22.3643 7.49195C21.5151 7.49195 20.8267 8.17711 20.8267 9.02231C20.8267 9.86751 21.5151 10.5527 22.3643 10.5527Z" fill="white"/>
<path d="M15.7017 9.53276C12.3042 9.53276 9.55127 12.2737 9.55127 15.6557C9.55127 19.0365 12.3042 21.7793 15.7017 21.7793C19.0982 21.7793 21.852 19.0365 21.852 15.6557C21.852 12.2737 19.0982 9.53276 15.7017 9.53276ZM15.7017 19.7382C13.4374 19.7382 11.6015 17.9105 11.6015 15.6557C11.6015 13.4009 13.4374 11.5738 15.7017 11.5738C17.966 11.5738 19.8018 13.4009 19.8018 15.6557C19.8018 17.9105 17.966 19.7382 15.7017 19.7382Z" fill="white"/>
</svg>
