<svg width="23" height="23" viewBox="0 0 23 23" fill="none" xmlns="http://www.w3.org/2000/svg">
<g clip-path="url(#clip0_162_1614)">
<path d="M5.02032 0.367833C4.1205 -0.129514 3.064 -0.118015 2.16992 0.37502L12.6487 10.0417L16.1689 6.52142L5.02032 0.367833Z" fill="#2D2926"/>
<path d="M1.12172 1.36401C0.865855 1.7823 0.719238 2.26096 0.719238 2.76837V20.2273C0.719238 20.7189 0.852918 21.1875 1.0944 21.5971L11.6321 11.0594L1.12172 1.36401Z" fill="#2D2926"/>
<path d="M20.8361 9.09722L17.4783 7.24438L13.7051 11.0162L18.3293 15.281L20.8375 13.8968C21.7402 13.3965 22.2807 12.4996 22.2807 11.4963C22.2793 10.493 21.7402 9.596 20.8361 9.09722Z" fill="#2D2926"/>
<path d="M12.6885 12.0339L2.12207 22.6004C2.58061 22.862 3.0837 23 3.58967 23C4.0784 23 4.56999 22.8764 5.01991 22.6277L17.0037 16.0141L12.6885 12.0339Z" fill="#2D2926"/>
</g>
<defs>
<clipPath id="clip0_162_1614">
<rect width="23" height="23" fill="white"/>
</clipPath>
</defs>
</svg>
