<svg width="16" height="16" viewBox="0 0 16 16" fill="none" xmlns="http://www.w3.org/2000/svg">
<path d="M8 14.25C7.80109 14.25 7.61032 14.171 7.46967 14.0303C7.32902 13.8897 7.25 13.6989 7.25 13.5L7.25 2.5C7.25 2.30109 7.32902 2.11032 7.46967 1.96967C7.61032 1.82902 7.80109 1.75 8 1.75C8.19891 1.75 8.38968 1.82902 8.53033 1.96967C8.67098 2.11032 8.75 2.30109 8.75 2.5V13.5C8.75 13.6989 8.67098 13.8897 8.53033 14.0303C8.38968 14.171 8.19891 14.25 8 14.25ZM11.25 2.5V13.5C11.25 13.6989 11.329 13.8897 11.4697 14.0303C11.6103 14.171 11.8011 14.25 12 14.25C12.1989 14.25 12.3897 14.171 12.5303 14.0303C12.671 13.8897 12.75 13.6989 12.75 13.5V2.5C12.75 2.30109 12.671 2.11032 12.5303 1.96967C12.3897 1.82902 12.1989 1.75 12 1.75C11.8011 1.75 11.6103 1.82902 11.4697 1.96967C11.329 2.11032 11.25 2.30109 11.25 2.5ZM4.75 13.5L4.75 2.5C4.75 2.30109 4.67098 2.11032 4.53033 1.96967C4.38968 1.82902 4.19891 1.75 4 1.75C3.80109 1.75 3.61032 1.82902 3.46967 1.96967C3.32902 2.11032 3.25 2.30109 3.25 2.5V13.5C3.25 13.6989 3.32902 13.8897 3.46967 14.0303C3.61032 14.171 3.80109 14.25 4 14.25C4.19891 14.25 4.38968 14.171 4.53033 14.0303C4.67098 13.8897 4.75 13.6989 4.75 13.5Z" fill="white"/>
</svg>
