<svg width="52" height="52" viewBox="0 0 52 52" fill="none" xmlns="http://www.w3.org/2000/svg">
<path d="M50.0419 11.4869C49.6908 11.2677 49.2898 11.1415 48.8765 11.1202C48.4632 11.0989 48.0513 11.1832 47.6795 11.3651C39.2539 15.4865 33.1764 13.5405 26.7434 11.4788C20.0037 9.32161 12.3663 6.87599 2.17953 11.8566C1.76922 12.0572 1.42352 12.369 1.18182 12.7565C0.940122 13.144 0.812153 13.5916 0.812501 14.0483V38.4436C0.812186 38.8574 0.917218 39.2645 1.1177 39.6265C1.31819 39.9885 1.60752 40.2934 1.95845 40.5127C2.30938 40.732 2.71035 40.8583 3.12358 40.8797C3.53682 40.9012 3.94872 40.8171 4.32047 40.6354C12.7461 36.514 18.8236 38.4599 25.2566 40.5216C29.0814 41.7404 33.1947 43.0627 37.8991 43.0627C41.4863 43.0627 45.4147 42.2969 49.8205 40.1438C50.2308 39.9432 50.5765 39.6314 50.8182 39.2439C51.0599 38.8564 51.1878 38.4088 51.1875 37.9521V13.5568C51.188 13.1429 51.0831 12.7357 50.8826 12.3735C50.6822 12.0114 50.3929 11.7063 50.0419 11.4869ZM46.3125 36.384C38.5938 39.6665 32.823 37.82 26.7434 35.8741C22.9186 34.6554 18.8053 33.331 14.1009 33.331C11.2345 33.3362 8.38976 33.8273 5.6875 34.7833V15.6165C13.4063 12.334 19.177 14.1783 25.2566 16.1263C31.2 18.0296 37.8402 20.1563 46.3125 17.2171V36.384ZM26 19.5002C24.7144 19.5002 23.4577 19.8814 22.3888 20.5957C21.3199 21.3099 20.4868 22.325 19.9948 23.5128C19.5028 24.7005 19.3741 26.0074 19.6249 27.2683C19.8757 28.5292 20.4948 29.6874 21.4038 30.5964C22.3128 31.5054 23.471 32.1245 24.7319 32.3753C25.9928 32.6261 27.2997 32.4974 28.4874 32.0054C29.6752 31.5135 30.6903 30.6803 31.4046 29.6114C32.1188 28.5425 32.5 27.2858 32.5 26.0002C32.4968 24.2773 31.8109 22.6259 30.5926 21.4076C29.3743 20.1893 27.7229 19.5034 26 19.5002ZM26 27.6252C25.6786 27.6252 25.3644 27.5299 25.0972 27.3513C24.83 27.1728 24.6217 26.919 24.4987 26.6221C24.3757 26.3251 24.3435 25.9984 24.4062 25.6832C24.4689 25.368 24.6237 25.0784 24.851 24.8512C25.0782 24.6239 25.3678 24.4691 25.683 24.4064C25.9982 24.3437 26.3249 24.3759 26.6219 24.4989C26.9188 24.6219 27.1726 24.8302 27.3511 25.0974C27.5297 25.3646 27.625 25.6788 27.625 26.0002C27.625 26.4312 27.4538 26.8445 27.149 27.1493C26.8443 27.454 26.431 27.6252 26 27.6252ZM13 20.3127V28.4377C13 29.0842 12.7432 29.7042 12.2861 30.1613C11.829 30.6184 11.209 30.8752 10.5625 30.8752C9.91604 30.8752 9.29605 30.6184 8.83893 30.1613C8.38181 29.7042 8.125 29.0842 8.125 28.4377V20.3127C8.125 19.6662 8.38181 19.0463 8.83893 18.5891C9.29605 18.132 9.91604 17.8752 10.5625 17.8752C11.209 17.8752 11.829 18.132 12.2861 18.5891C12.7432 19.0463 13 19.6662 13 20.3127ZM39 31.6877V23.5627C39 22.9162 39.2568 22.2963 39.7139 21.8391C40.171 21.382 40.791 21.1252 41.4375 21.1252C42.084 21.1252 42.704 21.382 43.1611 21.8391C43.6182 22.2963 43.875 22.9162 43.875 23.5627V31.6877C43.875 32.3342 43.6182 32.9542 43.1611 33.4113C42.704 33.8684 42.084 34.1252 41.4375 34.1252C40.791 34.1252 40.171 33.8684 39.7139 33.4113C39.2568 32.9542 39 32.3342 39 31.6877Z" fill="white"/>
</svg>
