<svg width="52" height="52" viewBox="0 0 52 52" fill="none" xmlns="http://www.w3.org/2000/svg">
<path d="M46.4648 20.3227C45.7498 19.5772 45.0125 18.8073 44.7708 18.2244C44.5555 17.7044 44.5392 16.6339 44.525 15.6914C44.4945 13.6602 44.4559 11.1333 42.6603 9.33969C40.8647 7.54609 38.3398 7.51156 36.3086 7.475C35.3661 7.46078 34.2956 7.44453 33.7756 7.22922C33.1927 6.9875 32.4228 6.25016 31.6773 5.53516C30.2392 4.15594 28.4477 2.4375 26 2.4375C23.5523 2.4375 21.7608 4.15594 20.3227 5.53516C19.5772 6.25016 18.8073 6.9875 18.2244 7.22922C17.7044 7.44453 16.6339 7.46078 15.6914 7.475C13.6602 7.51562 11.1333 7.54406 9.34375 9.34375C7.55422 11.1434 7.51562 13.6602 7.475 15.6914C7.46078 16.6339 7.44453 17.7044 7.22922 18.2244C6.9875 18.8073 6.25016 19.5772 5.53516 20.3227C4.15594 21.7608 2.4375 23.5625 2.4375 26C2.4375 28.4375 4.15594 30.2392 5.53516 31.6875C6.25016 32.433 6.9875 33.2028 7.22922 33.7858C7.44453 34.3058 7.46078 35.3763 7.475 36.3188C7.50547 38.35 7.54406 40.8769 9.33969 42.6705C11.1353 44.4641 13.6602 44.4986 15.6914 44.5352C16.6339 44.5494 17.7044 44.5656 18.2244 44.7809C18.8073 45.0227 19.5772 45.76 20.3227 46.475C21.7608 47.8441 23.5625 49.5625 26 49.5625C28.4375 49.5625 30.2392 47.8441 31.6773 46.4648C32.4228 45.7498 33.1927 45.0125 33.7756 44.7708C34.2956 44.5555 35.3661 44.5392 36.3086 44.525C38.3398 44.4945 40.8667 44.4559 42.6603 42.6603C44.4539 40.8647 44.4884 38.3398 44.525 36.3086C44.5392 35.3661 44.5555 34.2956 44.7708 33.7756C45.0125 33.1927 45.7498 32.4228 46.4648 31.6773C47.8441 30.2392 49.5625 28.4477 49.5625 26C49.5625 23.5523 47.8441 21.7608 46.4648 20.3227ZM42.9467 28.3034C41.9677 29.3191 40.8586 30.4809 40.2675 31.9109C39.6947 33.2922 39.6723 34.7872 39.6581 36.2355C39.6419 37.3242 39.6195 38.8172 39.2214 39.2133C38.8233 39.6094 37.3323 39.6338 36.2436 39.65C34.7953 39.6723 33.3003 39.6947 31.9191 40.2594C30.4972 40.8505 29.3333 41.9595 28.3116 42.9386C27.5803 43.6394 26.4875 44.6875 26 44.6875C25.5125 44.6875 24.4197 43.6394 23.6966 42.9467C22.6809 41.9677 21.5191 40.8586 20.0891 40.2675C18.7078 39.6947 17.2128 39.6723 15.7645 39.6581C14.6758 39.6419 13.1828 39.6195 12.7867 39.2214C12.3906 38.8233 12.3663 37.3323 12.35 36.2436C12.3277 34.7953 12.3053 33.3003 11.7406 31.9191C11.1495 30.4972 10.0405 29.3333 9.06141 28.3116C8.36063 27.5803 7.3125 26.4875 7.3125 26C7.3125 25.5125 8.36062 24.4197 9.05328 23.6966C10.0323 22.6809 11.1414 21.5191 11.7325 20.0891C12.3053 18.7078 12.3277 17.2128 12.3419 15.7645C12.3663 14.6758 12.3906 13.1828 12.7969 12.7969C13.2031 12.4109 14.6859 12.3764 15.7747 12.3602C17.223 12.3378 18.718 12.3155 20.0992 11.7508C21.5211 11.1597 22.685 10.0506 23.7067 9.07156C24.4197 8.36062 25.5125 7.3125 26 7.3125C26.4875 7.3125 27.5803 8.36062 28.3034 9.05328C29.3191 10.0323 30.4809 11.1414 31.9109 11.7325C33.2922 12.3053 34.7872 12.3277 36.2355 12.3419C37.3242 12.3581 38.8172 12.3805 39.2133 12.7786C39.6094 13.1767 39.6338 14.6677 39.65 15.7564C39.6723 17.2047 39.6947 18.6997 40.2594 20.0809C40.8505 21.5028 41.9595 22.6667 42.9386 23.6884C43.6312 24.4116 44.6794 25.5044 44.6794 25.9919C44.6794 26.4794 43.6394 27.5803 42.9467 28.3034ZM35.8495 19.4005C36.0768 19.6269 36.2571 19.896 36.3801 20.1923C36.5031 20.4886 36.5665 20.8062 36.5665 21.127C36.5665 21.4478 36.5031 21.7655 36.3801 22.0618C36.2571 22.3581 36.0768 22.6271 35.8495 22.8536L24.4745 34.2286C24.2481 34.4558 23.979 34.6361 23.6827 34.7592C23.3864 34.8822 23.0688 34.9455 22.748 34.9455C22.4272 34.9455 22.1095 34.8822 21.8132 34.7592C21.5169 34.6361 21.2479 34.4558 21.0214 34.2286L16.1464 29.3536C15.9197 29.1269 15.7398 28.8577 15.6171 28.5614C15.4944 28.2652 15.4312 27.9477 15.4312 27.627C15.4312 27.3064 15.4944 26.9889 15.6171 26.6926C15.7398 26.3964 15.9197 26.1272 16.1464 25.9005C16.3731 25.6737 16.6423 25.4939 16.9386 25.3712C17.2348 25.2485 17.5523 25.1853 17.873 25.1853C18.1936 25.1853 18.5111 25.2485 18.8074 25.3712C19.1036 25.4939 19.3728 25.6737 19.5995 25.9005L22.75 29.0469L32.4005 19.3944C32.6272 19.1681 32.8964 18.9888 33.1925 18.8667C33.4886 18.7445 33.8059 18.682 34.1263 18.6825C34.4466 18.6831 34.7637 18.7468 35.0594 18.87C35.355 18.9932 35.6236 19.1734 35.8495 19.4005Z" fill="white"/>
</svg>
