<svg width="25" height="25" viewBox="0 0 25 25" fill="none" xmlns="http://www.w3.org/2000/svg">
<path d="M20.2751 19.1491C20.2752 19.6417 20.1674 20.1283 19.9594 20.5749C19.7513 21.0214 19.4481 21.417 19.0709 21.7338C18.6937 22.0506 18.2517 22.2811 17.776 22.4089C17.3002 22.5367 16.8023 22.5589 16.3171 22.4738C15.8319 22.3887 15.3712 22.1984 14.9674 21.9163C14.5635 21.6342 14.2264 21.2672 13.9795 20.8409C13.7326 20.4146 13.5821 19.9395 13.5384 19.4488C13.4947 18.9581 13.559 18.4638 13.7267 18.0007L8.75791 14.8085C8.28335 15.274 7.68191 15.5889 7.02902 15.7139C6.37613 15.8389 5.70087 15.7683 5.08796 15.5109C4.47506 15.2536 3.95179 14.821 3.58381 14.2674C3.21583 13.7138 3.01953 13.0638 3.01953 12.3991C3.01953 11.7344 3.21583 11.0844 3.58381 10.5308C3.95179 9.97721 4.47506 9.5446 5.08796 9.28726C5.70087 9.02992 6.37613 8.9593 7.02902 9.08427C7.68191 9.20924 8.28335 9.52423 8.75791 9.98972L13.7267 6.80222C13.4421 6.02039 13.4557 5.16113 13.7646 4.38864C14.0736 3.61614 14.6564 2.98458 15.4016 2.61462C16.1468 2.24467 17.0022 2.16226 17.8044 2.38314C18.6065 2.60403 19.2991 3.11272 19.7499 3.81202C20.2007 4.51131 20.378 5.35218 20.248 6.17396C20.1179 6.99573 19.6897 7.74078 19.045 8.26674C18.4004 8.7927 17.5845 9.06271 16.7534 9.02515C15.9222 8.98759 15.1341 8.64512 14.5395 8.06316L9.57072 11.2553C9.83926 11.9974 9.83926 12.8101 9.57072 13.5522L14.5395 16.7444C15.0139 16.2801 15.6146 15.966 16.2666 15.8415C16.9186 15.7169 17.5929 15.7873 18.205 16.044C18.8172 16.3006 19.3401 16.7321 19.7083 17.2844C20.0765 17.8367 20.2736 18.4853 20.2751 19.1491Z" fill="#FAFAFA"/>
</svg>
