<svg width="47" height="47" viewBox="0 0 47 47" fill="none" xmlns="http://www.w3.org/2000/svg">
<mask id="mask0_677_3279" style="mask-type:luminance" maskUnits="userSpaceOnUse" x="0" y="0" width="47" height="47">
<path d="M0 3.8147e-06H47V47H0V3.8147e-06Z" fill="white"/>
</mask>
<g mask="url(#mask0_677_3279)">
<path d="M18.802 18.4765C18.6688 18.3905 18.5105 18.3415 18.3412 18.3415C17.8666 18.3415 17.4814 18.7267 17.4814 19.2013C17.4814 19.4265 17.5682 19.632 17.7101 19.7851C17.8675 19.9553 18.0918 20.061 18.3412 20.061C18.8157 20.061 19.201 19.6759 19.201 19.2013C19.201 18.8961 19.0419 18.6287 18.802 18.4765Z" fill="white"/>
<path d="M23.5 2.35002V8.02441" stroke="white" stroke-width="2" stroke-linecap="round" stroke-linejoin="round"/>
<path d="M23.5 38.976V44.6504" stroke="white" stroke-width="2" stroke-linecap="round" stroke-linejoin="round"/>
<path d="M7.18945 8.90918L10.8374 12.5571" stroke="white" stroke-width="2" stroke-linecap="round" stroke-linejoin="round"/>
<path d="M36.1621 35.3027L39.8101 38.9507" stroke="white" stroke-width="2" stroke-linecap="round" stroke-linejoin="round"/>
<path d="M39.8101 8.90918L36.1621 12.5571" stroke="white" stroke-width="2" stroke-linecap="round" stroke-linejoin="round"/>
<path d="M10.8374 35.3027L7.18945 38.9507" stroke="white" stroke-width="2" stroke-linecap="round" stroke-linejoin="round"/>
<path d="M42.4142 23.4999C42.4142 23.4999 34.8957 34.6768 23.4996 34.6768C12.1035 34.6768 4.58496 23.4999 4.58496 23.4999C4.58496 23.4999 12.1035 12.3231 23.4996 12.3231C34.8957 12.3231 42.4142 23.4999 42.4142 23.4999Z" stroke="white" stroke-width="2" stroke-linecap="round" stroke-linejoin="round"/>
<path d="M21.0411 17.0745C21.072 17.0625 21.103 17.0513 21.134 17.0402C21.1683 17.0273 21.2027 17.0152 21.2371 17.0032C21.2681 16.992 21.299 16.9817 21.3308 16.9714C21.3712 16.9576 21.4134 16.9439 21.4546 16.931C21.5079 16.9146 21.5613 16.8983 21.6154 16.8837C21.6679 16.8682 21.7212 16.8536 21.7753 16.8398C21.8321 16.8252 21.8887 16.8115 21.9456 16.7986C21.9989 16.7865 22.0513 16.7745 22.1046 16.7642C22.1476 16.7547 22.1906 16.7461 22.2344 16.7384C22.2723 16.7315 22.3101 16.7246 22.3479 16.7186C22.3685 16.7143 22.39 16.7109 22.4115 16.7083C22.4502 16.7014 22.4889 16.6963 22.5276 16.6911C22.5379 16.6894 22.5474 16.6877 22.5577 16.6868C22.5904 16.6816 22.6239 16.6773 22.6574 16.673C22.6936 16.6687 22.7297 16.6644 22.7658 16.661L22.8174 16.6558C22.8543 16.6515 22.8922 16.6481 22.9291 16.6455C22.9488 16.6438 22.9687 16.6421 22.9884 16.6412C23.0133 16.6387 23.0392 16.6369 23.0641 16.6361C23.1011 16.6335 23.1388 16.6318 23.1759 16.6301C23.224 16.6275 23.2722 16.6258 23.3212 16.6249C23.3796 16.6232 23.4397 16.6223 23.4991 16.6223C27.2975 16.6223 30.3772 19.702 30.3772 23.5004C30.3772 24.6877 30.0763 25.8045 29.5467 26.7786C29.4942 26.8749 29.44 26.9703 29.3833 27.0632C29.354 27.1122 29.324 27.1595 29.293 27.2076C29.238 27.2936 29.1813 27.3779 29.1228 27.4613C29.1168 27.4699 29.1107 27.4776 29.1048 27.4862C28.9792 27.6633 28.8451 27.8344 28.7023 27.9978C28.5948 28.1224 28.4823 28.2436 28.3653 28.3606C28.2596 28.4663 28.1503 28.5695 28.0378 28.6675C27.5658 29.0828 27.037 29.4344 26.4636 29.7078C26.369 29.7534 26.2735 29.7964 26.1763 29.8376C25.9709 29.9245 25.7594 30.0018 25.5445 30.0689C25.3287 30.136 25.1095 30.1927 24.8851 30.2383C24.4371 30.3303 23.9736 30.3784 23.4991 30.3784C19.7007 30.3784 16.6211 27.2988 16.6211 23.5004C16.6211 23.441 16.622 23.3817 16.6237 23.3233C16.6245 23.2751 16.6262 23.2278 16.6288 23.1797C16.6306 23.135 16.633 23.0903 16.6357 23.0464C16.6366 23.0335 16.6374 23.0206 16.6383 23.0077C16.6417 22.9665 16.6442 22.9252 16.6486 22.8839C16.6495 22.8736 16.6503 22.8641 16.6511 22.8538C16.6555 22.8048 16.6606 22.7558 16.6667 22.7077V22.706C16.6726 22.6544 16.6787 22.6028 16.6864 22.5512C16.6916 22.5125 16.6968 22.4738 16.7036 22.4351C16.7105 22.3835 16.719 22.3337 16.7286 22.283C16.7302 22.2692 16.7329 22.2563 16.7354 22.2425" stroke="white" stroke-width="2" stroke-linecap="round" stroke-linejoin="round"/>
<path d="M23.4992 26.0796C22.0772 26.0796 20.9199 24.9224 20.9199 23.5003C20.9199 22.0783 22.0772 20.9211 23.4992 20.9211C24.9212 20.9211 26.0785 22.0783 26.0785 23.5003C26.0785 24.9224 24.9212 26.0796 23.4992 26.0796Z" stroke="white" stroke-width="2" stroke-linecap="round" stroke-linejoin="round"/>
</g>
</svg>
