<svg width="54" height="54" viewBox="0 0 54 54" fill="none" xmlns="http://www.w3.org/2000/svg">
<path d="M40.0844 28.3498C39.7744 31.3548 38.4429 34.1624 36.3122 36.304C34.1815 38.4455 31.3806 39.7912 28.3772 40.1164C28.3167 40.1157 28.2567 40.127 28.2007 40.1499C28.1447 40.1727 28.0938 40.2064 28.051 40.2492C28.0082 40.292 27.9745 40.3429 27.9517 40.3989C27.9288 40.4549 27.9175 40.5149 27.9182 40.5754V50.398C27.9182 50.6415 27.8215 50.875 27.6493 51.0471C27.4772 51.2193 27.2437 51.316 27.0002 51.316C26.7567 51.316 26.5232 51.2193 26.3511 51.0471C26.1789 50.875 26.0822 50.6415 26.0822 50.398V46.834C26.0734 46.7152 26.0223 46.6034 25.938 46.5192C25.8538 46.4349 25.742 46.3837 25.6232 46.375C21.5403 46.0446 17.6676 44.4273 14.5624 41.7558C11.4571 39.0843 9.27961 35.4965 8.34319 31.5088C8.30834 31.3906 8.29762 31.2667 8.31167 31.1443C8.32572 31.0219 8.36426 30.9036 8.42499 30.7964C8.48572 30.6893 8.5674 30.5954 8.66517 30.5205C8.76293 30.4455 8.87478 30.391 8.99404 30.3602C9.11331 30.3294 9.23756 30.3229 9.35939 30.3411C9.48122 30.3593 9.59814 30.4019 9.70319 30.4662C9.80823 30.5306 9.89925 30.6154 9.97082 30.7156C10.0424 30.8159 10.0931 30.9295 10.1198 31.0498C10.9523 34.6293 12.8935 37.8546 15.6666 40.2661C18.4398 42.6776 21.9034 44.1521 25.5638 44.4796C25.6826 44.539 25.796 44.4796 25.9094 44.3662C25.9693 44.3323 26.0178 44.2814 26.0486 44.2198C26.0794 44.1582 26.0911 44.0889 26.0822 44.0206V40.5754C26.0829 40.5149 26.0715 40.4549 26.0487 40.3989C26.0259 40.3429 25.9921 40.292 25.9494 40.2492C25.9066 40.2064 25.8557 40.1727 25.7997 40.1499C25.7437 40.127 25.6837 40.1157 25.6232 40.1164C22.6341 39.7834 19.8449 38.4516 17.7068 36.3364C15.5691 34.188 14.2346 31.3702 13.9268 28.3552C13.9093 28.2449 13.8539 28.1441 13.7701 28.0702C13.6863 27.9963 13.5794 27.9538 13.4678 27.9502H3.6452C3.39457 27.9502 3.1542 27.8506 2.97698 27.6734C2.79976 27.4962 2.7002 27.2558 2.7002 27.0052C2.7002 26.7546 2.79976 26.5142 2.97698 26.337C3.1542 26.1598 3.39457 26.0602 3.6452 26.0602H7.3766C7.48794 26.0555 7.59431 26.0128 7.67787 25.939C7.76143 25.8653 7.81712 25.7651 7.8356 25.6552C8.08063 21.5784 9.59538 17.6805 12.1675 14.508C14.7395 11.3355 18.24 9.04752 22.178 7.96479C22.4165 7.91953 22.6632 7.96722 22.8677 8.0981C23.0721 8.22898 23.2187 8.43312 23.2774 8.66865C23.3361 8.90418 23.3025 9.15325 23.1834 9.36477C23.0643 9.57629 22.8688 9.73423 22.637 9.80619C19.1138 10.7562 15.9753 12.7828 13.6596 15.6028C11.3439 18.4229 9.96668 21.8957 9.72019 25.5364C9.70497 25.6035 9.70557 25.6732 9.72196 25.7399C9.73835 25.8067 9.77008 25.8688 9.81462 25.9212C9.85916 25.9736 9.9153 26.0149 9.97858 26.0419C10.0419 26.0688 10.1105 26.0806 10.1792 26.0764H13.4462C13.5578 26.0728 13.6647 26.0303 13.7485 25.9564C13.8323 25.8825 13.8877 25.7817 13.9052 25.6714C14.211 22.6609 15.542 19.8469 17.6753 17.7008C19.8086 15.5548 22.6146 14.207 25.6232 13.8832C25.6837 13.8839 25.7437 13.8725 25.7997 13.8497C25.8557 13.8269 25.9066 13.7931 25.9494 13.7504C25.9921 13.7076 26.0259 13.6567 26.0487 13.6007C26.0715 13.5447 26.0829 13.4847 26.0822 13.4242V3.60159C26.0822 3.35813 26.1789 3.12463 26.3511 2.95247C26.5232 2.78031 26.7567 2.68359 27.0002 2.68359C27.2437 2.68359 27.4772 2.78031 27.6493 2.95247C27.8215 3.12463 27.9182 3.35813 27.9182 3.60159V14.7418C27.9244 14.8718 27.9033 15.0016 27.8564 15.123C27.8094 15.2444 27.7376 15.3546 27.6456 15.4466C27.5536 15.5386 27.4434 15.6104 27.322 15.6574C27.2006 15.7043 27.0708 15.7254 26.9408 15.7192C16.9562 15.7192 11.9666 27.9448 19.0244 35.008C26.0822 42.0712 38.1296 37.0168 38.3024 26.9998C38.3009 26.8788 38.3237 26.7588 38.3693 26.6468C38.4149 26.5347 38.4825 26.433 38.568 26.3474C38.6536 26.2619 38.7554 26.1943 38.8674 26.1487C38.9794 26.1031 39.0994 26.0803 39.2204 26.0818H50.3552C50.6058 26.0818 50.8462 26.1814 51.0234 26.3586C51.2006 26.5358 51.3002 26.7762 51.3002 27.0268C51.3002 27.2774 51.2006 27.5178 51.0234 27.695C50.8462 27.8722 50.6058 27.9718 50.3552 27.9718H46.6832C46.5693 27.9672 46.4579 28.0068 46.3724 28.0822C46.2869 28.1576 46.2338 28.2632 46.2242 28.3768C45.9262 32.479 44.3397 36.3822 41.6913 39.5291C39.0429 42.676 35.4679 44.9057 31.4768 45.8998C30.2726 46.186 29.8568 44.35 31.0718 44.0638C34.636 43.1776 37.8324 41.1955 40.2107 38.3968C42.589 35.5981 44.0293 32.1237 44.3288 28.4632C44.344 28.3961 44.3434 28.3264 44.327 28.2596C44.3106 28.1928 44.2789 28.1308 44.2344 28.0784C44.1898 28.026 44.1337 27.9847 44.0704 27.9577C44.0071 27.9308 43.9384 27.919 43.8698 27.9232H40.5434C40.4317 27.9268 40.3248 27.9693 40.2411 28.0432C40.1573 28.1171 40.1019 28.2179 40.0844 28.3282V28.3498ZM47.5202 13.0786L40.8836 19.6774C40.7214 19.8534 40.4963 19.9582 40.2572 19.969H35.8346C35.7139 19.9796 35.5973 20.0184 35.4944 20.0824L27.632 28.0042C27.4552 28.1694 27.2212 28.2595 26.9793 28.2557C26.7374 28.2518 26.5064 28.1542 26.335 27.9835C26.1636 27.8128 26.0651 27.5822 26.0602 27.3403C26.0554 27.0984 26.1445 26.8641 26.309 26.6866L34.1714 18.7594C34.2243 18.7329 34.2686 18.6919 34.2992 18.6413C34.3298 18.5906 34.3454 18.5323 34.3442 18.4732V14.0398C34.3431 13.9121 34.3679 13.7855 34.4171 13.6676C34.4662 13.5497 34.5388 13.443 34.6304 13.354L41.2292 6.76059C41.3566 6.62284 41.5226 6.52665 41.7054 6.48455C41.8883 6.44246 42.0796 6.45641 42.2544 6.52459C42.4293 6.59278 42.5795 6.71203 42.6856 6.86681C42.7917 7.0216 42.8487 7.20474 42.8492 7.39239V11.0104C42.8568 11.1296 42.9076 11.242 42.9921 11.3265C43.0766 11.411 43.189 11.4618 43.3082 11.4694H46.8668C47.0566 11.4644 47.2435 11.5167 47.4032 11.6195C47.5628 11.7223 47.6878 11.8708 47.7618 12.0457C47.8358 12.2205 47.8554 12.4136 47.8181 12.5998C47.7808 12.786 47.6883 12.9566 47.5526 13.0894L47.5202 13.0786ZM39.9602 17.9386L43.805 14.0938C43.8718 14.0321 43.919 13.9521 43.9408 13.8638C43.9625 13.7755 43.9579 13.6827 43.9274 13.5971C43.8969 13.5114 43.8419 13.4365 43.7693 13.3818C43.6967 13.3271 43.6096 13.2949 43.5188 13.2892H41.8988C41.648 13.2951 41.405 13.2021 41.2221 13.0303C41.0393 12.8586 40.9312 12.6219 40.9214 12.3712V10.7998C40.9209 10.7068 40.8932 10.616 40.8416 10.5386C40.7901 10.4612 40.7169 10.4006 40.6313 10.3644C40.5456 10.3282 40.4512 10.3179 40.3597 10.3348C40.2683 10.3517 40.1838 10.3951 40.1168 10.4596L36.3368 14.3044C36.2359 14.3923 36.1738 14.5165 36.164 14.65V17.6362C36.1633 17.6967 36.1746 17.7567 36.1975 17.8127C36.2203 17.8687 36.2541 17.9196 36.2968 17.9624C36.3396 18.0051 36.3905 18.0389 36.4465 18.0617C36.5025 18.0845 36.5625 18.0959 36.623 18.0952H39.6632C39.782 18.0952 39.8954 18.0952 39.9494 17.9764L39.9602 17.9386ZM34.7978 27.0106C34.7999 28.5546 34.344 30.0645 33.4876 31.3492C32.6313 32.6339 31.4131 33.6357 29.9871 34.2278C28.5612 34.8199 26.9916 34.9757 25.4771 34.6754C23.9627 34.3751 22.5713 33.6322 21.4792 32.5409C20.387 31.4495 19.6432 30.0586 19.3419 28.5443C19.0405 27.0301 19.1952 25.4604 19.7863 24.0341C20.3774 22.6077 21.3783 21.3888 22.6625 20.5316C23.9466 19.6743 25.4562 19.2173 27.0002 19.2184C27.2322 19.2362 27.4489 19.3409 27.6071 19.5116C27.7652 19.6823 27.853 19.9064 27.853 20.1391C27.853 20.3718 27.7652 20.5959 27.6071 20.7666C27.4489 20.9373 27.2322 21.042 27.0002 21.0598C25.4248 21.0598 23.9139 21.6856 22.8 22.7996C21.686 23.9135 21.0602 25.4244 21.0602 26.9998C21.0602 28.5752 21.686 30.086 22.8 31.2C23.9139 32.314 25.4248 32.9398 27.0002 32.9398C30.4454 32.9398 32.7404 30.3586 32.9078 26.9998C32.9024 26.8695 32.9239 26.7395 32.9709 26.6179C33.0179 26.4963 33.0894 26.3856 33.181 26.2928C33.2726 26.2 33.3824 26.1271 33.5034 26.0785C33.6244 26.0299 33.7541 26.0068 33.8844 26.0105C34.0148 26.0142 34.143 26.0447 34.261 26.1001C34.3791 26.1555 34.4845 26.2345 34.5706 26.3324C34.6568 26.4303 34.7219 26.5448 34.7619 26.6689C34.8019 26.793 34.816 26.924 34.8032 27.0538L34.7978 27.0106Z" fill="white"/>
</svg>
