<svg width="52" height="52" viewBox="0 0 52 52" fill="none" xmlns="http://www.w3.org/2000/svg">
<path d="M25.4273 31.8785C27.4688 30.1625 28.9332 27.8601 29.6218 25.2837C30.3104 22.7072 30.1899 19.9812 29.2767 17.4756C28.3635 14.9699 26.7018 12.8057 24.5168 11.2764C22.3319 9.74723 19.7295 8.927 17.0626 8.927C14.3957 8.927 11.7933 9.74723 9.60837 11.2764C7.42344 12.8057 5.76169 14.9699 4.84849 17.4756C3.93529 19.9812 3.81482 22.7072 4.50343 25.2837C5.19204 27.8601 6.6564 30.1625 8.69792 31.8785C5.51003 33.3199 2.7474 35.5586 0.67651 38.3785C0.294018 38.8997 0.134243 39.5515 0.232333 40.1905C0.330423 40.8295 0.678344 41.4034 1.19956 41.7859C1.72077 42.1684 2.37258 42.3282 3.01159 42.2301C3.65061 42.132 4.22449 41.7841 4.60698 41.2629C6.04052 39.305 7.9154 37.7127 10.0795 36.615C12.2436 35.5174 14.636 34.9453 17.0626 34.9453C19.4892 34.9453 21.8816 35.5174 24.0457 36.615C26.2098 37.7127 28.0847 39.305 29.5182 41.2629C29.9007 41.7843 30.4747 42.1325 31.1139 42.2308C31.7531 42.3291 32.4052 42.1694 32.9267 41.7869C33.4481 41.4044 33.7963 40.8304 33.8946 40.1912C33.9929 39.552 33.8332 38.9 33.4507 38.3785C31.3786 35.559 28.6154 33.3204 25.4273 31.8785ZM8.9376 21.9375C8.9376 20.3306 9.41413 18.7597 10.3069 17.4235C11.1997 16.0874 12.4687 15.046 13.9533 14.431C15.438 13.8161 17.0716 13.6552 18.6477 13.9687C20.2238 14.2822 21.6715 15.056 22.8078 16.1923C23.9441 17.3286 24.718 18.7763 25.0315 20.3524C25.345 21.9285 25.1841 23.5622 24.5691 25.0468C23.9542 26.5315 22.9128 27.8004 21.5766 28.6932C20.2405 29.586 18.6696 30.0625 17.0626 30.0625C14.9077 30.0625 12.8411 29.2065 11.3174 27.6828C9.79363 26.1591 8.9376 24.0924 8.9376 21.9375ZM50.8017 41.7768C50.5436 41.9664 50.2507 42.1033 49.9398 42.1797C49.6288 42.2561 49.3058 42.2704 48.9893 42.222C48.6727 42.1735 48.3689 42.0631 48.095 41.8971C47.8212 41.7312 47.5827 41.5129 47.3932 41.2547C45.9562 39.3006 44.0805 37.711 41.9172 36.6138C39.7539 35.5167 37.3632 34.9425 34.9376 34.9375C34.2911 34.9375 33.6712 34.6807 33.214 34.2236C32.7569 33.7665 32.5001 33.1465 32.5001 32.5C32.5001 31.8536 32.7569 31.2336 33.214 30.7765C33.6712 30.3194 34.2911 30.0625 34.9376 30.0625C36.0924 30.0605 37.2336 29.8123 38.2849 29.3344C39.3363 28.8566 40.2737 28.1601 41.0347 27.2915C41.7957 26.4228 42.3627 25.4019 42.698 24.2968C43.0334 23.1917 43.1293 22.0279 42.9794 20.8828C42.8294 19.7377 42.4371 18.6378 41.8286 17.6562C41.2201 16.6747 40.4093 15.8342 39.4504 15.1907C38.4914 14.5473 37.4063 14.1156 36.2674 13.9245C35.1284 13.7335 33.9619 13.7874 32.8454 14.0827C32.5336 14.1729 32.2069 14.1999 31.8845 14.1622C31.5621 14.1244 31.2505 14.0227 30.9679 13.8628C30.6854 13.703 30.4376 13.4884 30.2392 13.2315C30.0407 12.9746 29.8955 12.6807 29.8122 12.367C29.7289 12.0533 29.709 11.7261 29.7539 11.4046C29.7987 11.0831 29.9073 10.7738 30.0733 10.4948C30.2393 10.2159 30.4593 9.97286 30.7205 9.78009C30.9816 9.58732 31.2787 9.44865 31.5942 9.37223C34.449 8.6158 37.4763 8.85398 40.1777 10.0476C42.8792 11.2412 45.0936 13.319 46.4566 15.939C47.8196 18.5591 48.2499 21.5651 47.6765 24.4623C47.1032 27.3595 45.5604 29.9751 43.3023 31.8785C46.4902 33.3199 49.2528 35.5586 51.3237 38.3785C51.7034 38.8989 51.8617 39.5485 51.7639 40.1853C51.6661 40.8221 51.3201 41.3943 50.8017 41.7768Z" fill="white"/>
</svg>
