<svg width="28" height="28" viewBox="0 0 28 28" fill="none" xmlns="http://www.w3.org/2000/svg">
<path d="M21.6629 20.0465C21.8775 20.2611 21.9981 20.5521 21.9981 20.8556C21.9981 21.1591 21.8775 21.4502 21.6629 21.6648C21.4483 21.8794 21.1572 22 20.8537 22C20.5502 22 20.2591 21.8794 20.0444 21.6648L14 15.6188L7.95365 21.6629C7.73903 21.8775 7.44794 21.9981 7.14442 21.9981C6.8409 21.9981 6.54981 21.8775 6.33519 21.6629C6.12057 21.4483 6 21.1572 6 20.8537C6 20.5502 6.12057 20.2592 6.33519 20.0446L12.3815 14.0005L6.3371 7.95448C6.12248 7.73987 6.0019 7.4488 6.0019 7.1453C6.0019 6.8418 6.12248 6.55073 6.3371 6.33612C6.55172 6.12152 6.8428 6.00095 7.14632 6.00095C7.44984 6.00095 7.74093 6.12152 7.95555 6.33612L14 12.3821L20.0464 6.33517C20.261 6.12057 20.5521 6 20.8556 6C21.1591 6 21.4502 6.12057 21.6648 6.33517C21.8794 6.54978 22 6.84085 22 7.14435C22 7.44785 21.8794 7.73892 21.6648 7.95353L15.6185 14.0005L21.6629 20.0465Z" fill="white"/>
</svg>
